<?xml version="1.0" encoding="UTF-8"?>
<svg xmlns="http://www.w3.org/2000/svg" width="1280" height="800" viewBox="0 0 1280 800" fill="none">
  <rect width="1280" height="800" fill="#0f1115"/>
  <rect x="0" y="0" width="220" height="800" fill="#12151b"/>
  <rect x="219" y="0" width="1" height="800" fill="#ffffff" opacity="0.08"/>
  <rect x="16" y="20" width="88" height="28" rx="8" fill="#1a1f28"/>
  <text x="28" y="39" fill="#e8eaed" font-family="system-ui,sans-serif" font-size="12" font-weight="600">Monavel</text>
  <rect x="16" y="68" width="188" height="32" rx="8" fill="#059669" opacity="0.18"/>
  <rect x="16" y="68" width="3" height="32" rx="1.5" fill="#10b981"/>
  <text x="28" y="88" fill="#d1fae5" font-family="system-ui,sans-serif" font-size="12" font-weight="500">AI Inbox</text>
  <text x="16" y="124" fill="#6b7280" font-family="system-ui,sans-serif" font-size="10" letter-spacing="0.08em">WORKSPACES</text>
  <text x="28" y="152" fill="#9ca3af" font-family="system-ui,sans-serif" font-size="12">Calendar</text>
  <text x="28" y="180" fill="#9ca3af" font-family="system-ui,sans-serif" font-size="12">Bookings</text>
  <text x="28" y="208" fill="#9ca3af" font-family="system-ui,sans-serif" font-size="12">Guests</text>
  <rect x="220" y="0" width="320" height="800" fill="#11141a"/>
  <rect x="539" y="0" width="1" height="800" fill="#ffffff" opacity="0.08"/>
  <text x="236" y="36" fill="#f3f4f6" font-family="system-ui,sans-serif" font-size="14" font-weight="600">Dialogs</text>
  <circle cx="500" cy="28" r="5" fill="#10b981"/>
  <rect x="236" y="52" width="288" height="36" rx="10" fill="#171b22" stroke="#ffffff" stroke-opacity="0.08"/>
  <text x="252" y="75" fill="#6b7280" font-family="system-ui,sans-serif" font-size="12">Search guests...</text>
  <rect x="236" y="104" width="288" height="72" rx="12" fill="#171d26" stroke="#10b981" stroke-opacity="0.35"/>
  <text x="252" y="128" fill="#f9fafb" font-family="system-ui,sans-serif" font-size="13" font-weight="600">Anna K. - Hotel Aurora</text>
  <text x="252" y="148" fill="#9ca3af" font-family="system-ui,sans-serif" font-size="12">What time is check-in?</text>
  <rect x="468" y="116" width="44" height="20" rx="10" fill="#059669" opacity="0.2"/>
  <text x="476" y="130" fill="#6ee7b7" font-family="system-ui,sans-serif" font-size="10">AI</text>
  <rect x="236" y="188" width="288" height="64" rx="12" fill="#141820"/>
  <text x="252" y="212" fill="#e5e7eb" font-family="system-ui,sans-serif" font-size="13" font-weight="500">Mikhail R.</text>
  <text x="252" y="232" fill="#6b7280" font-family="system-ui,sans-serif" font-size="12">Is parking available?</text>
  <rect x="236" y="264" width="288" height="64" rx="12" fill="#141820"/>
  <text x="252" y="288" fill="#e5e7eb" font-family="system-ui,sans-serif" font-size="13" font-weight="500">Elena V.</text>
  <text x="252" y="308" fill="#6b7280" font-family="system-ui,sans-serif" font-size="12">Late checkout</text>
  <rect x="540" y="0" width="740" height="800" fill="#0f1115"/>
  <text x="564" y="40" fill="#f9fafb" font-family="system-ui,sans-serif" font-size="15" font-weight="600">Anna K.</text>
  <text x="564" y="62" fill="#6b7280" font-family="system-ui,sans-serif" font-size="12">Telegram - now</text>
  <rect x="564" y="88" width="420" height="44" rx="14" fill="#171b22"/>
  <text x="580" y="115" fill="#e5e7eb" font-family="system-ui,sans-serif" font-size="13">Hello! What time can I check in?</text>
  <rect x="564" y="152" width="520" height="108" rx="16" fill="#13211c" stroke="#10b981" stroke-opacity="0.25"/>
  <rect x="564" y="152" width="4" height="108" rx="2" fill="#10b981"/>
  <text x="584" y="180" fill="#a7f3d0" font-family="system-ui,sans-serif" font-size="11" font-weight="600">AI Receptionist</text>
  <text x="584" y="204" fill="#e5e7eb" font-family="system-ui,sans-serif" font-size="13">Check-in at Hotel Aurora starts at 2:00 PM.</text>
  <text x="584" y="226" fill="#e5e7eb" font-family="system-ui,sans-serif" font-size="13">Early check-in is available when rooms are ready.</text>
  <rect x="584" y="238" width="140" height="18" rx="9" fill="#059669" opacity="0.18"/>
  <text x="594" y="251" fill="#6ee7b7" font-family="system-ui,sans-serif" font-size="10">Check-in policy</text>
  <rect x="564" y="720" width="672" height="48" rx="14" fill="#171b22" stroke="#ffffff" stroke-opacity="0.08"/>
  <text x="580" y="749" fill="#6b7280" font-family="system-ui,sans-serif" font-size="12">Team sees the conversation in real time...</text>
  <rect x="1080" y="732" width="140" height="32" rx="10" fill="#10b981"/>
  <text x="1104" y="752" fill="#052e1f" font-family="system-ui,sans-serif" font-size="12" font-weight="600">AI active</text>
</svg>
