<?xml version="1.0" encoding="UTF-8"?>
<svg xmlns="http://www.w3.org/2000/svg" width="1280" height="800" viewBox="0 0 1280 800" fill="none">
  <rect width="1280" height="800" fill="#0f1115"/>
  <rect x="0" y="0" width="220" height="800" fill="#12151b"/>
  <rect x="219" y="0" width="1" height="800" fill="#ffffff" opacity="0.08"/>
  <text x="28" y="39" fill="#e8eaed" font-family="system-ui,sans-serif" font-size="12" font-weight="600">Monavel</text>
  <text x="16" y="88" fill="#6b7280" font-family="system-ui,sans-serif" font-size="10" letter-spacing="0.08em">WORKSPACES</text>
  <rect x="16" y="104" width="188" height="24" rx="6" fill="#10b98133"/>
  <text x="28" y="120" fill="#f9fafb" font-family="system-ui,sans-serif" font-size="11" font-weight="600">Dashboard</text>
  <rect x="16" y="132" width="188" height="24" rx="6" fill="#141820"/>
  <text x="28" y="148" fill="#9ca3af" font-family="system-ui,sans-serif" font-size="11">Bookings</text>
  <rect x="16" y="160" width="188" height="24" rx="6" fill="#141820"/>
  <text x="28" y="176" fill="#9ca3af" font-family="system-ui,sans-serif" font-size="11">Guests</text>
  <rect x="16" y="188" width="188" height="24" rx="6" fill="#141820"/>
  <text x="28" y="204" fill="#9ca3af" font-family="system-ui,sans-serif" font-size="11">Rooms</text>
  <rect x="16" y="216" width="188" height="24" rx="6" fill="#141820"/>
  <text x="28" y="232" fill="#9ca3af" font-family="system-ui,sans-serif" font-size="11">Calendar</text>
  <rect x="16" y="244" width="188" height="24" rx="6" fill="#141820"/>
  <text x="28" y="260" fill="#9ca3af" font-family="system-ui,sans-serif" font-size="11">Revenue</text>
  <rect x="16" y="272" width="188" height="24" rx="6" fill="#141820"/>
  <text x="28" y="288" fill="#9ca3af" font-family="system-ui,sans-serif" font-size="11">Knowledge</text>
  <rect x="16" y="300" width="188" height="24" rx="6" fill="#141820"/>
  <text x="28" y="316" fill="#9ca3af" font-family="system-ui,sans-serif" font-size="11">Reception AI</text>

  <rect x="220" y="0" width="1060" height="800" fill="#0f1115"/>
  <text x="252" y="48" fill="#f9fafb" font-family="system-ui,sans-serif" font-size="20" font-weight="600">Dashboard</text>
  <text x="252" y="72" fill="#6b7280" font-family="system-ui,sans-serif" font-size="12">monavel.app/dashboard</text>
  <rect x="252" y="88" width="180" height="24" rx="12" fill="#10b98122"/>
  <text x="264" y="104" fill="#10b981" font-family="system-ui,sans-serif" font-size="11" font-weight="600">Connected by AI</text>
  <rect x="1140" y="36" width="100" height="32" rx="8" fill="#171b22" stroke="#ffffff" stroke-opacity="0.08"/>
  <circle cx="1158" cy="52" r="10" fill="#1f2937"/>
  <text x="1174" y="56" fill="#9ca3af" font-family="system-ui,sans-serif" font-size="11">Hotel Aurora</text>

  <!-- KPI Row -->
  <rect x="252" y="120" width="240" height="108" rx="12" fill="#171b22" stroke="#ffffff" stroke-opacity="0.08"/>
  <text x="268" y="144" fill="#6b7280" font-family="system-ui,sans-serif" font-size="11">Revenue</text>
  <text x="268" y="176" fill="#f9fafb" font-family="system-ui,sans-serif" font-size="22" font-weight="600">$48.2k</text>
  <text x="358" y="176" fill="#10b981" font-family="system-ui,sans-serif" font-size="11" font-weight="600">+12%</text>
  <polyline points="268,212 288,206 308,210 328,198 348,202 368,192 388,196 408,186 428,190 448,182 468,188" fill="none" stroke="#10b981" stroke-width="1.5" stroke-opacity="0.65"/>

  <rect x="508" y="120" width="240" height="108" rx="12" fill="#171b22" stroke="#ffffff" stroke-opacity="0.08"/>
  <text x="524" y="144" fill="#6b7280" font-family="system-ui,sans-serif" font-size="11">Occupancy</text>
  <text x="524" y="176" fill="#f9fafb" font-family="system-ui,sans-serif" font-size="22" font-weight="600">87%</text>
  <text x="590" y="176" fill="#10b981" font-family="system-ui,sans-serif" font-size="11" font-weight="600">+5%</text>
  <polyline points="524,212 544,208 564,214 584,200 604,206 624,194 644,200 664,190 684,196 704,188 724,192" fill="none" stroke="#10b981" stroke-width="1.5" stroke-opacity="0.65"/>

  <rect x="764" y="120" width="240" height="108" rx="12" fill="#171b22" stroke="#ffffff" stroke-opacity="0.08"/>
  <text x="780" y="144" fill="#6b7280" font-family="system-ui,sans-serif" font-size="11">Today&apos;s Arrivals</text>
  <text x="780" y="176" fill="#f9fafb" font-family="system-ui,sans-serif" font-size="22" font-weight="600">14</text>
  <text x="828" y="176" fill="#6b7280" font-family="system-ui,sans-serif" font-size="11">guests</text>
  <polyline points="780,212 800,216 820,210 840,218 860,204 880,212 900,198 920,206 940,200 960,208 980,196" fill="none" stroke="#10b981" stroke-width="1.5" stroke-opacity="0.65"/>

  <rect x="1020" y="120" width="240" height="108" rx="12" fill="#171b22" stroke="#ffffff" stroke-opacity="0.08"/>
  <text x="1036" y="144" fill="#6b7280" font-family="system-ui,sans-serif" font-size="11">AI Inbox</text>
  <text x="1036" y="176" fill="#f9fafb" font-family="system-ui,sans-serif" font-size="22" font-weight="600">6</text>
  <text x="1072" y="176" fill="#f59e0b" font-family="system-ui,sans-serif" font-size="11" font-weight="600">2 urgent</text>
  <polyline points="1036,212 1056,208 1076,214 1096,202 1116,210 1136,196 1156,204 1176,198 1196,206 1216,192 1236,200" fill="none" stroke="#10b981" stroke-width="1.5" stroke-opacity="0.65"/>

  <!-- Second Row -->
  <rect x="252" y="244" width="240" height="300" rx="14" fill="#171b22" stroke="#ffffff" stroke-opacity="0.08"/>
  <text x="268" y="272" fill="#e5e7eb" font-family="system-ui,sans-serif" font-size="13" font-weight="600">Recent Activity</text>
  <text x="432" y="272" fill="#6b7280" font-family="system-ui,sans-serif" font-size="10">View all</text>
  <line x1="268" y1="284" x2="476" y2="284" stroke="#ffffff" stroke-opacity="0.06"/>
  <circle cx="274" cy="304" r="3" fill="#10b981"/>
  <text x="286" y="308" fill="#e5e7eb" font-family="system-ui,sans-serif" font-size="11">New booking - Anna K.</text>
  <text x="286" y="324" fill="#6b7280" font-family="system-ui,sans-serif" font-size="10">Booking.com - 2m ago</text>
  <circle cx="274" cy="348" r="3" fill="#6b7280"/>
  <text x="286" y="352" fill="#e5e7eb" font-family="system-ui,sans-serif" font-size="11">Check-in completed - Rm 204</text>
  <text x="286" y="368" fill="#6b7280" font-family="system-ui,sans-serif" font-size="10">Front desk - 14m ago</text>
  <circle cx="274" cy="392" r="3" fill="#10b981"/>
  <text x="286" y="396" fill="#e5e7eb" font-family="system-ui,sans-serif" font-size="11">AI replied to guest inquiry</text>
  <text x="286" y="412" fill="#6b7280" font-family="system-ui,sans-serif" font-size="10">Reception AI - 32m ago</text>
  <circle cx="274" cy="436" r="3" fill="#6b7280"/>
  <text x="286" y="440" fill="#e5e7eb" font-family="system-ui,sans-serif" font-size="11">Rate updated for weekend</text>
  <text x="286" y="456" fill="#6b7280" font-family="system-ui,sans-serif" font-size="10">Revenue - 1h ago</text>
  <circle cx="274" cy="480" r="3" fill="#6b7280"/>
  <text x="286" y="484" fill="#e5e7eb" font-family="system-ui,sans-serif" font-size="11">Room 112 marked clean</text>
  <text x="286" y="500" fill="#6b7280" font-family="system-ui,sans-serif" font-size="10">Housekeeping - 2h ago</text>
  <circle cx="274" cy="524" r="3" fill="#6b7280"/>
  <text x="286" y="528" fill="#e5e7eb" font-family="system-ui,sans-serif" font-size="11">Late checkout approved</text>
  <text x="286" y="544" fill="#6b7280" font-family="system-ui,sans-serif" font-size="10">Room 305 - 3h ago</text>

  <rect x="508" y="244" width="240" height="300" rx="14" fill="#171b22" stroke="#ffffff" stroke-opacity="0.08"/>
  <text x="524" y="272" fill="#e5e7eb" font-family="system-ui,sans-serif" font-size="13" font-weight="600">Today&apos;s Arrivals</text>
  <text x="688" y="272" fill="#6b7280" font-family="system-ui,sans-serif" font-size="10">14 total</text>
  <rect x="524" y="288" width="208" height="20" rx="4" fill="#141820"/>
  <text x="532" y="302" fill="#6b7280" font-family="system-ui,sans-serif" font-size="9" font-weight="600">GUEST</text>
  <text x="600" y="302" fill="#6b7280" font-family="system-ui,sans-serif" font-size="9" font-weight="600">RM</text>
  <text x="636" y="302" fill="#6b7280" font-family="system-ui,sans-serif" font-size="9" font-weight="600">ETA</text>
  <text x="684" y="302" fill="#6b7280" font-family="system-ui,sans-serif" font-size="9" font-weight="600">STATUS</text>
  <line x1="524" y1="316" x2="732" y2="316" stroke="#ffffff" stroke-opacity="0.06"/>
  <text x="532" y="334" fill="#e5e7eb" font-family="system-ui,sans-serif" font-size="10">James Morales</text>
  <text x="600" y="334" fill="#9ca3af" font-family="system-ui,sans-serif" font-size="10">201</text>
  <text x="636" y="334" fill="#9ca3af" font-family="system-ui,sans-serif" font-size="10">14:00</text>
  <rect x="676" y="322" width="52" height="16" rx="4" fill="#1a2e28"/>
  <text x="684" y="333" fill="#10b981" font-family="system-ui,sans-serif" font-size="9">Expected</text>
  <line x1="524" y1="344" x2="732" y2="344" stroke="#ffffff" stroke-opacity="0.04"/>
  <text x="532" y="362" fill="#e5e7eb" font-family="system-ui,sans-serif" font-size="10">Sarah Chen</text>
  <text x="600" y="362" fill="#9ca3af" font-family="system-ui,sans-serif" font-size="10">305</text>
  <text x="636" y="362" fill="#9ca3af" font-family="system-ui,sans-serif" font-size="10">15:30</text>
  <rect x="676" y="350" width="52" height="16" rx="4" fill="#10b98122"/>
  <text x="682" y="361" fill="#10b981" font-family="system-ui,sans-serif" font-size="9">Checked in</text>
  <line x1="524" y1="372" x2="732" y2="372" stroke="#ffffff" stroke-opacity="0.04"/>
  <text x="532" y="390" fill="#e5e7eb" font-family="system-ui,sans-serif" font-size="10">Robert Kim</text>
  <text x="600" y="390" fill="#9ca3af" font-family="system-ui,sans-serif" font-size="10">112</text>
  <text x="636" y="390" fill="#9ca3af" font-family="system-ui,sans-serif" font-size="10">16:00</text>
  <rect x="676" y="378" width="52" height="16" rx="4" fill="#1a2e28"/>
  <text x="684" y="389" fill="#10b981" font-family="system-ui,sans-serif" font-size="9">Expected</text>
  <line x1="524" y1="400" x2="732" y2="400" stroke="#ffffff" stroke-opacity="0.04"/>
  <text x="532" y="418" fill="#e5e7eb" font-family="system-ui,sans-serif" font-size="10">Elena Popov</text>
  <text x="600" y="418" fill="#9ca3af" font-family="system-ui,sans-serif" font-size="10">408</text>
  <text x="636" y="418" fill="#9ca3af" font-family="system-ui,sans-serif" font-size="10">17:00</text>
  <rect x="676" y="406" width="44" height="16" rx="4" fill="#422006"/>
  <text x="682" y="417" fill="#f59e0b" font-family="system-ui,sans-serif" font-size="9">Delayed</text>
  <line x1="524" y1="428" x2="732" y2="428" stroke="#ffffff" stroke-opacity="0.04"/>
  <text x="532" y="446" fill="#e5e7eb" font-family="system-ui,sans-serif" font-size="10">Michael Wong</text>
  <text x="600" y="446" fill="#9ca3af" font-family="system-ui,sans-serif" font-size="10">210</text>
  <text x="636" y="446" fill="#9ca3af" font-family="system-ui,sans-serif" font-size="10">18:30</text>
  <rect x="676" y="434" width="52" height="16" rx="4" fill="#1a2e28"/>
  <text x="684" y="445" fill="#10b981" font-family="system-ui,sans-serif" font-size="9">Expected</text>
  <line x1="524" y1="456" x2="732" y2="456" stroke="#ffffff" stroke-opacity="0.04"/>
  <text x="532" y="474" fill="#e5e7eb" font-family="system-ui,sans-serif" font-size="10">Lisa Hartmann</text>
  <text x="600" y="474" fill="#9ca3af" font-family="system-ui,sans-serif" font-size="10">402</text>
  <text x="636" y="474" fill="#9ca3af" font-family="system-ui,sans-serif" font-size="10">19:00</text>
  <rect x="676" y="462" width="52" height="16" rx="4" fill="#1a2e28"/>
  <text x="684" y="473" fill="#10b981" font-family="system-ui,sans-serif" font-size="9">Expected</text>
  <line x1="524" y1="484" x2="732" y2="484" stroke="#ffffff" stroke-opacity="0.04"/>
  <text x="532" y="502" fill="#e5e7eb" font-family="system-ui,sans-serif" font-size="10">David Novak</text>
  <text x="600" y="502" fill="#9ca3af" font-family="system-ui,sans-serif" font-size="10">118</text>
  <text x="636" y="502" fill="#9ca3af" font-family="system-ui,sans-serif" font-size="10">20:15</text>
  <rect x="676" y="490" width="52" height="16" rx="4" fill="#1a2e28"/>
  <text x="684" y="501" fill="#10b981" font-family="system-ui,sans-serif" font-size="9">Expected</text>

  <rect x="764" y="244" width="240" height="300" rx="14" fill="#171b22" stroke="#ffffff" stroke-opacity="0.08"/>
  <text x="780" y="272" fill="#e5e7eb" font-family="system-ui,sans-serif" font-size="13" font-weight="600">AI Insights</text>
  <rect x="780" y="292" width="208" height="72" rx="8" fill="#141820"/>
  <rect x="780" y="292" width="3" height="72" rx="1.5" fill="#10b981"/>
  <text x="792" y="314" fill="#10b981" font-family="system-ui,sans-serif" font-size="10" font-weight="600">OCCUPANCY</text>
  <text x="792" y="334" fill="#e5e7eb" font-family="system-ui,sans-serif" font-size="11">Up 8% vs last week. Fri-Sat</text>
  <text x="792" y="350" fill="#9ca3af" font-family="system-ui,sans-serif" font-size="10">nearing full capacity.</text>
  <rect x="780" y="376" width="208" height="72" rx="8" fill="#141820"/>
  <rect x="780" y="376" width="3" height="72" rx="1.5" fill="#10b981"/>
  <text x="792" y="398" fill="#10b981" font-family="system-ui,sans-serif" font-size="10" font-weight="600">GUEST SIGNALS</text>
  <text x="792" y="418" fill="#e5e7eb" font-family="system-ui,sans-serif" font-size="11">3 guests asked about parking</text>
  <text x="792" y="434" fill="#9ca3af" font-family="system-ui,sans-serif" font-size="10">today. Update FAQ suggested.</text>
  <rect x="780" y="460" width="208" height="72" rx="8" fill="#141820"/>
  <rect x="780" y="460" width="3" height="72" rx="1.5" fill="#10b981"/>
  <text x="792" y="482" fill="#10b981" font-family="system-ui,sans-serif" font-size="10" font-weight="600">PRICING</text>
  <text x="792" y="502" fill="#e5e7eb" font-family="system-ui,sans-serif" font-size="11">Suggest +6% rate for Jul 12-13.</text>
  <text x="792" y="518" fill="#9ca3af" font-family="system-ui,sans-serif" font-size="10">Demand spike detected.</text>

  <rect x="1020" y="244" width="240" height="300" rx="14" fill="#171b22" stroke="#ffffff" stroke-opacity="0.08"/>
  <text x="1036" y="272" fill="#e5e7eb" font-family="system-ui,sans-serif" font-size="13" font-weight="600">Notifications</text>
  <circle cx="1228" cy="266" r="9" fill="#10b981"/>
  <text x="1225" y="270" fill="#052e1f" font-family="system-ui,sans-serif" font-size="10" font-weight="700">3</text>
  <rect x="1036" y="292" width="208" height="64" rx="8" fill="#141820"/>
  <circle cx="1050" cy="312" r="4" fill="#10b981"/>
  <text x="1062" y="312" fill="#e5e7eb" font-family="system-ui,sans-serif" font-size="11" font-weight="500">Payment received</text>
  <text x="1062" y="328" fill="#6b7280" font-family="system-ui,sans-serif" font-size="10">$1,240 from Sarah Chen - 8m ago</text>
  <rect x="1036" y="368" width="208" height="64" rx="8" fill="#141820"/>
  <circle cx="1050" cy="388" r="4" fill="#f59e0b"/>
  <text x="1062" y="388" fill="#e5e7eb" font-family="system-ui,sans-serif" font-size="11" font-weight="500">Maintenance request</text>
  <text x="1062" y="404" fill="#6b7280" font-family="system-ui,sans-serif" font-size="10">Room 305 AC issue - 22m ago</text>
  <rect x="1036" y="444" width="208" height="64" rx="8" fill="#141820"/>
  <circle cx="1050" cy="464" r="4" fill="#10b981"/>
  <text x="1062" y="464" fill="#e5e7eb" font-family="system-ui,sans-serif" font-size="11" font-weight="500">Review submitted</text>
  <text x="1062" y="480" fill="#6b7280" font-family="system-ui,sans-serif" font-size="10">5 stars from James M. - 1h ago</text>

  <!-- Bottom row -->
  <rect x="252" y="564" width="496" height="200" rx="14" fill="#171b22" stroke="#ffffff" stroke-opacity="0.08"/>
  <text x="268" y="592" fill="#e5e7eb" font-family="system-ui,sans-serif" font-size="13" font-weight="600">Revenue Trend</text>
  <text x="268" y="610" fill="#6b7280" font-family="system-ui,sans-serif" font-size="10">Last 14 days</text>
  <line x1="268" y1="720" x2="732" y2="720" stroke="#ffffff" stroke-opacity="0.06"/>
  <polyline points="268,700 300,688 332,692 364,670 396,678 428,652 460,660 492,640 524,648 556,620 588,632 620,608 652,618 684,590 716,600" fill="none" stroke="#10b981" stroke-width="2"/>
  <text x="268" y="738" fill="#6b7280" font-family="system-ui,sans-serif" font-size="9">Jun 26</text>
  <text x="400" y="738" fill="#6b7280" font-family="system-ui,sans-serif" font-size="9">Jul 2</text>
  <text x="532" y="738" fill="#6b7280" font-family="system-ui,sans-serif" font-size="9">Jul 8</text>
  <text x="680" y="738" fill="#6b7280" font-family="system-ui,sans-serif" font-size="9">Jul 10</text>

  <rect x="764" y="564" width="496" height="200" rx="14" fill="#171b22" stroke="#ffffff" stroke-opacity="0.08"/>
  <text x="780" y="592" fill="#e5e7eb" font-family="system-ui,sans-serif" font-size="13" font-weight="600">Recent Reservations</text>
  <text x="780" y="610" fill="#6b7280" font-family="system-ui,sans-serif" font-size="10">Last 24 hours</text>
  <rect x="780" y="624" width="464" height="20" rx="4" fill="#141820"/>
  <text x="788" y="638" fill="#6b7280" font-family="system-ui,sans-serif" font-size="9" font-weight="600">GUEST</text>
  <text x="900" y="638" fill="#6b7280" font-family="system-ui,sans-serif" font-size="9" font-weight="600">DATES</text>
  <text x="1000" y="638" fill="#6b7280" font-family="system-ui,sans-serif" font-size="9" font-weight="600">SOURCE</text>
  <text x="1100" y="638" fill="#6b7280" font-family="system-ui,sans-serif" font-size="9" font-weight="600">AMOUNT</text>
  <line x1="780" y1="652" x2="1244" y2="652" stroke="#ffffff" stroke-opacity="0.06"/>
  <text x="788" y="670" fill="#e5e7eb" font-family="system-ui,sans-serif" font-size="10">Anna Kowalski</text>
  <text x="900" y="670" fill="#9ca3af" font-family="system-ui,sans-serif" font-size="10">Jul 10-13</text>
  <text x="1000" y="670" fill="#9ca3af" font-family="system-ui,sans-serif" font-size="10">Booking.com</text>
  <text x="1100" y="670" fill="#e5e7eb" font-family="system-ui,sans-serif" font-size="10">$486</text>
  <line x1="780" y1="680" x2="1244" y2="680" stroke="#ffffff" stroke-opacity="0.04"/>
  <text x="788" y="698" fill="#e5e7eb" font-family="system-ui,sans-serif" font-size="10">Thomas Berg</text>
  <text x="900" y="698" fill="#9ca3af" font-family="system-ui,sans-serif" font-size="10">Jul 11-14</text>
  <text x="1000" y="698" fill="#9ca3af" font-family="system-ui,sans-serif" font-size="10">Direct</text>
  <text x="1100" y="698" fill="#e5e7eb" font-family="system-ui,sans-serif" font-size="10">$612</text>
  <line x1="780" y1="708" x2="1244" y2="708" stroke="#ffffff" stroke-opacity="0.04"/>
  <text x="788" y="726" fill="#e5e7eb" font-family="system-ui,sans-serif" font-size="10">Maria Santos</text>
  <text x="900" y="726" fill="#9ca3af" font-family="system-ui,sans-serif" font-size="10">Jul 12-15</text>
  <text x="1000" y="726" fill="#9ca3af" font-family="system-ui,sans-serif" font-size="10">Expedia</text>
  <text x="1100" y="726" fill="#e5e7eb" font-family="system-ui,sans-serif" font-size="10">$528</text>
  <line x1="780" y1="736" x2="1244" y2="736" stroke="#ffffff" stroke-opacity="0.04"/>
  <text x="788" y="754" fill="#e5e7eb" font-family="system-ui,sans-serif" font-size="10">Oliver Grant</text>
  <text x="900" y="754" fill="#9ca3af" font-family="system-ui,sans-serif" font-size="10">Jul 13-16</text>
  <text x="1000" y="754" fill="#9ca3af" font-family="system-ui,sans-serif" font-size="10">Airbnb</text>
  <text x="1100" y="754" fill="#e5e7eb" font-family="system-ui,sans-serif" font-size="10">$445</text>
</svg>
