<?xml version="1.0" encoding="UTF-8"?>
<svg xmlns="http://www.w3.org/2000/svg" width="1280" height="800" viewBox="0 0 1280 800" fill="none">
  <rect width="1280" height="800" fill="#0f1115"/>
  <rect x="0" y="0" width="220" height="800" fill="#12151b"/>
  <rect x="219" y="0" width="1" height="800" fill="#ffffff" opacity="0.08"/>
  <text x="36" y="39" fill="#e8eaed" font-family="system-ui,sans-serif" font-size="12" font-weight="600">Monavel</text>
  <text x="32" y="88" fill="#6b7280" font-family="system-ui,sans-serif" font-size="10" letter-spacing="0.08em">WORKSPACES</text>
  <rect x="24" y="104" width="180" height="24" rx="6" fill="#141820"/>
  <text x="36" y="120" fill="#9ca3af" font-family="system-ui,sans-serif" font-size="11" font-weight="400">Dashboard</text>
  <rect x="24" y="132" width="180" height="24" rx="6" fill="#141820"/>
  <text x="36" y="148" fill="#9ca3af" font-family="system-ui,sans-serif" font-size="11" font-weight="400">Bookings</text>
  <rect x="24" y="160" width="180" height="24" rx="6" fill="#141820"/>
  <text x="36" y="176" fill="#9ca3af" font-family="system-ui,sans-serif" font-size="11" font-weight="400">Guests</text>
  <rect x="24" y="188" width="180" height="24" rx="6" fill="#141820"/>
  <text x="36" y="204" fill="#9ca3af" font-family="system-ui,sans-serif" font-size="11" font-weight="400">Rooms</text>
  <rect x="24" y="216" width="180" height="24" rx="6" fill="#141820"/>
  <text x="36" y="232" fill="#9ca3af" font-family="system-ui,sans-serif" font-size="11" font-weight="400">Calendar</text>
  <rect x="24" y="244" width="180" height="24" rx="6" fill="#141820"/>
  <text x="36" y="260" fill="#9ca3af" font-family="system-ui,sans-serif" font-size="11" font-weight="400">Revenue</text>
  <rect x="24" y="272" width="180" height="24" rx="6" fill="#818cf833"/>
  <text x="36" y="288" fill="#f9fafb" font-family="system-ui,sans-serif" font-size="11" font-weight="600">Knowledge</text>
  <rect x="24" y="300" width="180" height="24" rx="6" fill="#141820"/>
  <text x="36" y="316" fill="#9ca3af" font-family="system-ui,sans-serif" font-size="11" font-weight="400">Reception AI</text>
  <rect x="220" y="0" width="1060" height="800" fill="#0f1115"/>
  <text x="252" y="48" fill="#f9fafb" font-family="system-ui,sans-serif" font-size="20" font-weight="600">Knowledge</text>
  <text x="252" y="72" fill="#6b7280" font-family="system-ui,sans-serif" font-size="12">monavel.app/knowledge</text>
  <rect x="252" y="88" width="180" height="24" rx="12" fill="#818cf822"/>
  <text x="264" y="104" fill="#818cf8" font-family="system-ui,sans-serif" font-size="11" font-weight="600">Connected by AI</text>
  <rect x="1140" y="36" width="100" height="32" rx="8" fill="#171b22" stroke="#ffffff" stroke-opacity="0.08"/>
  <circle cx="1158" cy="52" r="10" fill="#1f2937"/>
  <text x="1174" y="56" fill="#9ca3af" font-family="system-ui,sans-serif" font-size="11">Hotel Aurora</text>
  <rect x="252" y="120" width="230" height="88" rx="12" fill="#171b22" stroke="#ffffff" stroke-opacity="0.08"/>
  <text x="268" y="144" fill="#6b7280" font-family="system-ui,sans-serif" font-size="11">Articles</text>
  <text x="268" y="172" fill="#f9fafb" font-family="system-ui,sans-serif" font-size="22" font-weight="600">24</text>
  <text x="298" y="172" fill="#818cf8" font-family="system-ui,sans-serif" font-size="11" font-weight="600">published</text>
  <polyline points="268,192 288,188 308,194 328,184 348,190 368,182 388,186 408,178 428,184 448,176" fill="none" stroke="#818cf8" stroke-width="1.5" stroke-opacity="0.65"/>
  <rect x="498" y="120" width="230" height="88" rx="12" fill="#171b22" stroke="#ffffff" stroke-opacity="0.08"/>
  <text x="514" y="144" fill="#6b7280" font-family="system-ui,sans-serif" font-size="11">FAQ coverage</text>
  <text x="514" y="172" fill="#f9fafb" font-family="system-ui,sans-serif" font-size="22" font-weight="600">92%</text>
  <text x="555" y="172" fill="#818cf8" font-family="system-ui,sans-serif" font-size="11" font-weight="600">of queries</text>
  <polyline points="514,192 534,188 554,194 574,184 594,190 614,182 634,186 654,178 674,184 694,176" fill="none" stroke="#818cf8" stroke-width="1.5" stroke-opacity="0.65"/>
  <rect x="744" y="120" width="230" height="88" rx="12" fill="#171b22" stroke="#ffffff" stroke-opacity="0.08"/>
  <text x="760" y="144" fill="#6b7280" font-family="system-ui,sans-serif" font-size="11">AI training</text>
  <text x="760" y="172" fill="#f9fafb" font-family="system-ui,sans-serif" font-size="22" font-weight="600">Synced</text>
  <text x="834" y="172" fill="#10b981" font-family="system-ui,sans-serif" font-size="11" font-weight="600">2h ago</text>
  <polyline points="760,192 780,188 800,194 820,184 840,190 860,182 880,186 900,178 920,184 940,176" fill="none" stroke="#818cf8" stroke-width="1.5" stroke-opacity="0.65"/>
  <rect x="990" y="120" width="230" height="88" rx="12" fill="#171b22" stroke="#ffffff" stroke-opacity="0.08"/>
  <text x="1006" y="144" fill="#6b7280" font-family="system-ui,sans-serif" font-size="11">Drafts</text>
  <text x="1006" y="172" fill="#f9fafb" font-family="system-ui,sans-serif" font-size="22" font-weight="600">3</text>
  <text x="1025" y="172" fill="#f59e0b" font-family="system-ui,sans-serif" font-size="11" font-weight="600">pending</text>
  <polyline points="1006,192 1026,188 1046,194 1066,184 1086,190 1106,182 1126,186 1146,178 1166,184 1186,176" fill="none" stroke="#818cf8" stroke-width="1.5" stroke-opacity="0.65"/>
  <rect x="252" y="224" width="640" height="384" rx="14" fill="#171b22" stroke="#ffffff" stroke-opacity="0.08"/>
  <text x="268" y="252" fill="#e5e7eb" font-family="system-ui,sans-serif" font-size="13" font-weight="600">Knowledge articles</text>
  <text x="840" y="252" fill="#6b7280" font-family="system-ui,sans-serif" font-size="10">24 articles</text>
  <rect x="268" y="264" width="608" height="24" rx="4" fill="#141820"/>
  <text x="268" y="280" fill="#6b7280" font-family="system-ui,sans-serif" font-size="9" font-weight="600">TITLE</text>
  <text x="480" y="280" fill="#6b7280" font-family="system-ui,sans-serif" font-size="9" font-weight="600">CATEGORY</text>
  <text x="600" y="280" fill="#6b7280" font-family="system-ui,sans-serif" font-size="9" font-weight="600">UPDATED</text>
  <text x="720" y="280" fill="#6b7280" font-family="system-ui,sans-serif" font-size="9" font-weight="600">STATUS</text>
  <text x="800" y="280" fill="#6b7280" font-family="system-ui,sans-serif" font-size="9" font-weight="600">VIEWS</text>
  <line x1="268" y1="292" x2="876" y2="292" stroke="#ffffff" stroke-opacity="0.06"/>  <text x="268" y="300" fill="#e5e7eb" font-family="system-ui,sans-serif" font-size="10">Check-in policy</text>
  <text x="480" y="300" fill="#9ca3af" font-family="system-ui,sans-serif" font-size="10">Policies</text>
  <text x="600" y="300" fill="#9ca3af" font-family="system-ui,sans-serif" font-size="10">2h ago</text>
  <text x="720" y="300" fill="#10b981" font-family="system-ui,sans-serif" font-size="10">Published</text>
  <text x="800" y="300" fill="#9ca3af" font-family="system-ui,sans-serif" font-size="10">842</text>
  <line x1="268" y1="308" x2="876" y2="308" stroke="#ffffff" stroke-opacity="0.04"/>  <text x="268" y="328" fill="#e5e7eb" font-family="system-ui,sans-serif" font-size="10">Parking and shuttle</text>
  <text x="480" y="328" fill="#9ca3af" font-family="system-ui,sans-serif" font-size="10">Amenities</text>
  <text x="600" y="328" fill="#9ca3af" font-family="system-ui,sans-serif" font-size="10">Jul 8</text>
  <text x="720" y="328" fill="#10b981" font-family="system-ui,sans-serif" font-size="10">Published</text>
  <text x="800" y="328" fill="#9ca3af" font-family="system-ui,sans-serif" font-size="10">624</text>
  <line x1="268" y1="336" x2="876" y2="336" stroke="#ffffff" stroke-opacity="0.04"/>  <text x="268" y="356" fill="#e5e7eb" font-family="system-ui,sans-serif" font-size="10">Breakfast hours</text>
  <text x="480" y="356" fill="#9ca3af" font-family="system-ui,sans-serif" font-size="10">Dining</text>
  <text x="600" y="356" fill="#9ca3af" font-family="system-ui,sans-serif" font-size="10">Jul 7</text>
  <text x="720" y="356" fill="#10b981" font-family="system-ui,sans-serif" font-size="10">Published</text>
  <text x="800" y="356" fill="#9ca3af" font-family="system-ui,sans-serif" font-size="10">1,204</text>
  <line x1="268" y1="364" x2="876" y2="364" stroke="#ffffff" stroke-opacity="0.04"/>  <text x="268" y="384" fill="#e5e7eb" font-family="system-ui,sans-serif" font-size="10">Late checkout rules</text>
  <text x="480" y="384" fill="#9ca3af" font-family="system-ui,sans-serif" font-size="10">Policies</text>
  <text x="600" y="384" fill="#9ca3af" font-family="system-ui,sans-serif" font-size="10">Jul 5</text>
  <text x="720" y="384" fill="#10b981" font-family="system-ui,sans-serif" font-size="10">Published</text>
  <text x="800" y="384" fill="#9ca3af" font-family="system-ui,sans-serif" font-size="10">386</text>
  <line x1="268" y1="392" x2="876" y2="392" stroke="#ffffff" stroke-opacity="0.04"/>  <text x="268" y="412" fill="#e5e7eb" font-family="system-ui,sans-serif" font-size="10">Spa and wellness</text>
  <text x="480" y="412" fill="#9ca3af" font-family="system-ui,sans-serif" font-size="10">Amenities</text>
  <text x="600" y="412" fill="#9ca3af" font-family="system-ui,sans-serif" font-size="10">Jul 3</text>
  <text x="720" y="412" fill="#10b981" font-family="system-ui,sans-serif" font-size="10">Published</text>
  <text x="800" y="412" fill="#9ca3af" font-family="system-ui,sans-serif" font-size="10">218</text>
  <line x1="268" y1="420" x2="876" y2="420" stroke="#ffffff" stroke-opacity="0.04"/>  <text x="268" y="440" fill="#e5e7eb" font-family="system-ui,sans-serif" font-size="10">Local attractions</text>
  <text x="480" y="440" fill="#9ca3af" font-family="system-ui,sans-serif" font-size="10">Guide</text>
  <text x="600" y="440" fill="#9ca3af" font-family="system-ui,sans-serif" font-size="10">Jun 28</text>
  <text x="720" y="440" fill="#10b981" font-family="system-ui,sans-serif" font-size="10">Published</text>
  <text x="800" y="440" fill="#9ca3af" font-family="system-ui,sans-serif" font-size="10">512</text>
  <line x1="268" y1="448" x2="876" y2="448" stroke="#ffffff" stroke-opacity="0.04"/>  <text x="268" y="468" fill="#e5e7eb" font-family="system-ui,sans-serif" font-size="10">Pet policy</text>
  <text x="480" y="468" fill="#9ca3af" font-family="system-ui,sans-serif" font-size="10">Policies</text>
  <text x="600" y="468" fill="#9ca3af" font-family="system-ui,sans-serif" font-size="10">Jun 25</text>
  <text x="720" y="468" fill="#f59e0b" font-family="system-ui,sans-serif" font-size="10">Draft</text>
  <text x="800" y="468" fill="#9ca3af" font-family="system-ui,sans-serif" font-size="10">-</text>
  <line x1="268" y1="476" x2="876" y2="476" stroke="#ffffff" stroke-opacity="0.04"/>  <text x="268" y="496" fill="#e5e7eb" font-family="system-ui,sans-serif" font-size="10">Conference rooms</text>
  <text x="480" y="496" fill="#9ca3af" font-family="system-ui,sans-serif" font-size="10">Business</text>
  <text x="600" y="496" fill="#9ca3af" font-family="system-ui,sans-serif" font-size="10">Jun 20</text>
  <text x="720" y="496" fill="#10b981" font-family="system-ui,sans-serif" font-size="10">Published</text>
  <text x="800" y="496" fill="#9ca3af" font-family="system-ui,sans-serif" font-size="10">94</text>
  <line x1="268" y1="504" x2="876" y2="504" stroke="#ffffff" stroke-opacity="0.04"/>
  <rect x="908" y="224" width="352" height="384" rx="14" fill="#171b22" stroke="#ffffff" stroke-opacity="0.08"/>
  <text x="924" y="252" fill="#e5e7eb" font-family="system-ui,sans-serif" font-size="13" font-weight="600">AI training status</text>
  <rect x="924" y="268" width="320" height="72" rx="8" fill="#141820"/>
  <circle cx="944" cy="304" r="6" fill="#10b981"/>
  <text x="958" y="296" fill="#e5e7eb" font-family="system-ui,sans-serif" font-size="12" font-weight="600">Model synced</text>
  <text x="958" y="314" fill="#6b7280" font-family="system-ui,sans-serif" font-size="10">Last trained 2 hours ago</text>
  <text x="958" y="330" fill="#9ca3af" font-family="system-ui,sans-serif" font-size="10">24 articles indexed</text>
  <text x="924" y="364" fill="#e5e7eb" font-family="system-ui,sans-serif" font-size="12" font-weight="600">Coverage gaps</text>
  <text x="924" y="382" fill="#6b7280" font-family="system-ui,sans-serif" font-size="10">Topics missing from knowledge base</text>
  <rect x="924" y="394" width="320" height="32" rx="6" fill="#141820"/>
  <text x="936" y="414" fill="#f59e0b" font-family="system-ui,sans-serif" font-size="10">Airport transfer pricing</text>
  <rect x="924" y="434" width="320" height="32" rx="6" fill="#141820"/>
  <text x="936" y="454" fill="#f59e0b" font-family="system-ui,sans-serif" font-size="10">Room service menu</text>
  <rect x="924" y="474" width="320" height="32" rx="6" fill="#141820"/>
  <text x="936" y="494" fill="#f59e0b" font-family="system-ui,sans-serif" font-size="10">Gym access hours</text>
  <text x="924" y="536" fill="#6b7280" font-family="system-ui,sans-serif" font-size="10">92% FAQ coverage</text>
  <rect x="924" y="548" width="320" height="6" rx="3" fill="#1f2937"/>
  <rect x="924" y="548" width="294" height="6" rx="3" fill="#818cf8"/>
  <rect x="252" y="624" width="1008" height="152" rx="14" fill="#171b22" stroke="#ffffff" stroke-opacity="0.08"/>
  <text x="268" y="652" fill="#e5e7eb" font-family="system-ui,sans-serif" font-size="13" font-weight="600">Recent updates</text>
  <circle cx="274" cy="678" r="3" fill="#818cf8"/>
  <text x="286" y="682" fill="#e5e7eb" font-family="system-ui,sans-serif" font-size="11">Check-in policy refreshed from front desk feedback</text>
  <text x="286" y="698" fill="#6b7280" font-family="system-ui,sans-serif" font-size="10">2 hours ago - triggered AI retrain</text>
  <circle cx="274" cy="718" r="3" fill="#6b7280"/>
  <text x="286" y="722" fill="#e5e7eb" font-family="system-ui,sans-serif" font-size="11">Parking article updated with new rates</text>
  <text x="286" y="738" fill="#6b7280" font-family="system-ui,sans-serif" font-size="10">Jul 8</text>
  <circle cx="574" cy="678" r="3" fill="#6b7280"/>
  <text x="586" y="682" fill="#e5e7eb" font-family="system-ui,sans-serif" font-size="11">Pet policy draft created</text>
  <text x="586" y="698" fill="#6b7280" font-family="system-ui,sans-serif" font-size="10">Jun 25 - awaiting review</text>
</svg>
