<?xml version="1.0" encoding="UTF-8"?>
<svg xmlns="http://www.w3.org/2000/svg" width="1280" height="800" viewBox="0 0 1280 800" fill="none">
  <rect width="1280" height="800" fill="#0f1115"/>
  <rect x="0" y="0" width="220" height="800" fill="#12151b"/>
  <rect x="219" y="0" width="1" height="800" fill="#ffffff" opacity="0.08"/>
  <text x="36" y="39" fill="#e8eaed" font-family="system-ui,sans-serif" font-size="12" font-weight="600">Monavel</text>
  <text x="32" y="88" fill="#6b7280" font-family="system-ui,sans-serif" font-size="10" letter-spacing="0.08em">WORKSPACES</text>
  <rect x="24" y="104" width="180" height="24" rx="6" fill="#141820"/>
  <text x="36" y="120" fill="#9ca3af" font-family="system-ui,sans-serif" font-size="11" font-weight="400">Dashboard</text>
  <rect x="24" y="132" width="180" height="24" rx="6" fill="#141820"/>
  <text x="36" y="148" fill="#9ca3af" font-family="system-ui,sans-serif" font-size="11" font-weight="400">Bookings</text>
  <rect x="24" y="160" width="180" height="24" rx="6" fill="#a78bfa33"/>
  <text x="36" y="176" fill="#f9fafb" font-family="system-ui,sans-serif" font-size="11" font-weight="600">Guests</text>
  <rect x="24" y="188" width="180" height="24" rx="6" fill="#141820"/>
  <text x="36" y="204" fill="#9ca3af" font-family="system-ui,sans-serif" font-size="11" font-weight="400">Rooms</text>
  <rect x="24" y="216" width="180" height="24" rx="6" fill="#141820"/>
  <text x="36" y="232" fill="#9ca3af" font-family="system-ui,sans-serif" font-size="11" font-weight="400">Calendar</text>
  <rect x="24" y="244" width="180" height="24" rx="6" fill="#141820"/>
  <text x="36" y="260" fill="#9ca3af" font-family="system-ui,sans-serif" font-size="11" font-weight="400">Revenue</text>
  <rect x="24" y="272" width="180" height="24" rx="6" fill="#141820"/>
  <text x="36" y="288" fill="#9ca3af" font-family="system-ui,sans-serif" font-size="11" font-weight="400">Knowledge</text>
  <rect x="24" y="300" width="180" height="24" rx="6" fill="#141820"/>
  <text x="36" y="316" fill="#9ca3af" font-family="system-ui,sans-serif" font-size="11" font-weight="400">Reception AI</text>
  <rect x="220" y="0" width="1060" height="800" fill="#0f1115"/>
  <text x="252" y="48" fill="#f9fafb" font-family="system-ui,sans-serif" font-size="20" font-weight="600">Guests</text>
  <text x="252" y="72" fill="#6b7280" font-family="system-ui,sans-serif" font-size="12">app.monavel.com/guests</text>
  <rect x="252" y="88" width="180" height="24" rx="12" fill="#a78bfa22"/>
  <text x="264" y="104" fill="#a78bfa" font-family="system-ui,sans-serif" font-size="11" font-weight="600">Connected by AI</text>
  <rect x="1140" y="36" width="100" height="32" rx="8" fill="#171b22" stroke="#ffffff" stroke-opacity="0.08"/>
  <circle cx="1158" cy="52" r="10" fill="#1f2937"/>
  <text x="1174" y="56" fill="#9ca3af" font-family="system-ui,sans-serif" font-size="11">Hotel Aurora</text>
  <rect x="252" y="120" width="230" height="88" rx="12" fill="#171b22" stroke="#ffffff" stroke-opacity="0.08"/>
  <text x="268" y="144" fill="#6b7280" font-family="system-ui,sans-serif" font-size="11">Total guests</text>
  <text x="268" y="172" fill="#f9fafb" font-family="system-ui,sans-serif" font-size="22" font-weight="600">1,284</text>
  <text x="331" y="172" fill="#a78bfa" font-family="system-ui,sans-serif" font-size="11" font-weight="600">+48</text>
  <polyline points="268,192 288,188 308,194 328,184 348,190 368,182 388,186 408,178 428,184 448,176" fill="none" stroke="#a78bfa" stroke-width="1.5" stroke-opacity="0.65"/>
  <rect x="498" y="120" width="230" height="88" rx="12" fill="#171b22" stroke="#ffffff" stroke-opacity="0.08"/>
  <text x="514" y="144" fill="#6b7280" font-family="system-ui,sans-serif" font-size="11">VIP members</text>
  <text x="514" y="172" fill="#f9fafb" font-family="system-ui,sans-serif" font-size="22" font-weight="600">86</text>
  <text x="544" y="172" fill="#a78bfa" font-family="system-ui,sans-serif" font-size="11" font-weight="600">active</text>
  <polyline points="514,192 534,188 554,194 574,184 594,190 614,182 634,186 654,178 674,184 694,176" fill="none" stroke="#a78bfa" stroke-width="1.5" stroke-opacity="0.65"/>
  <rect x="744" y="120" width="230" height="88" rx="12" fill="#171b22" stroke="#ffffff" stroke-opacity="0.08"/>
  <text x="760" y="144" fill="#6b7280" font-family="system-ui,sans-serif" font-size="11">Returning</text>
  <text x="760" y="172" fill="#f9fafb" font-family="system-ui,sans-serif" font-size="22" font-weight="600">62%</text>
  <text x="801" y="172" fill="#a78bfa" font-family="system-ui,sans-serif" font-size="11" font-weight="600">+3%</text>
  <polyline points="760,192 780,188 800,194 820,184 840,190 860,182 880,186 900,178 920,184 940,176" fill="none" stroke="#a78bfa" stroke-width="1.5" stroke-opacity="0.65"/>
  <rect x="990" y="120" width="230" height="88" rx="12" fill="#171b22" stroke="#ffffff" stroke-opacity="0.08"/>
  <text x="1006" y="144" fill="#6b7280" font-family="system-ui,sans-serif" font-size="11">New this month</text>
  <text x="1006" y="172" fill="#f9fafb" font-family="system-ui,sans-serif" font-size="22" font-weight="600">48</text>
  <text x="1036" y="172" fill="#a78bfa" font-family="system-ui,sans-serif" font-size="11" font-weight="600">guests</text>
  <polyline points="1006,192 1026,188 1046,194 1066,184 1086,190 1106,182 1126,186 1146,178 1166,184 1186,176" fill="none" stroke="#a78bfa" stroke-width="1.5" stroke-opacity="0.65"/>
  <rect x="252" y="224" width="640" height="384" rx="14" fill="#171b22" stroke="#ffffff" stroke-opacity="0.08"/>
  <text x="268" y="252" fill="#e5e7eb" font-family="system-ui,sans-serif" font-size="13" font-weight="600">Guest profiles</text>
  <text x="840" y="252" fill="#6b7280" font-family="system-ui,sans-serif" font-size="10">1,284 total</text>
  <rect x="268" y="264" width="608" height="24" rx="4" fill="#141820"/>
  <text x="268" y="280" fill="#6b7280" font-family="system-ui,sans-serif" font-size="9" font-weight="600">GUEST</text>
  <text x="400" y="280" fill="#6b7280" font-family="system-ui,sans-serif" font-size="9" font-weight="600">EMAIL</text>
  <text x="580" y="280" fill="#6b7280" font-family="system-ui,sans-serif" font-size="9" font-weight="600">STAYS</text>
  <text x="660" y="280" fill="#6b7280" font-family="system-ui,sans-serif" font-size="9" font-weight="600">LTV</text>
  <text x="740" y="280" fill="#6b7280" font-family="system-ui,sans-serif" font-size="9" font-weight="600">SEGMENT</text>
  <text x="820" y="280" fill="#6b7280" font-family="system-ui,sans-serif" font-size="9" font-weight="600">TAGS</text>
  <line x1="268" y1="292" x2="876" y2="292" stroke="#ffffff" stroke-opacity="0.06"/>  <text x="268" y="300" fill="#e5e7eb" font-family="system-ui,sans-serif" font-size="10">Sarah Chen</text>
  <text x="400" y="300" fill="#9ca3af" font-family="system-ui,sans-serif" font-size="10">s.chen@email.com</text>
  <text x="580" y="300" fill="#9ca3af" font-family="system-ui,sans-serif" font-size="10">12</text>
  <text x="660" y="300" fill="#e5e7eb" font-family="system-ui,sans-serif" font-size="10">$4,820</text>
  <text x="740" y="300" fill="#9ca3af" font-family="system-ui,sans-serif" font-size="10">Loyalty</text>
  <rect x="820" y="288" width="44" height="16" rx="4" fill="#2e1065"/>
  <text x="828" y="299" fill="#a78bfa" font-family="system-ui,sans-serif" font-size="9">VIP</text>
  <line x1="268" y1="308" x2="876" y2="308" stroke="#ffffff" stroke-opacity="0.04"/>  <text x="268" y="328" fill="#e5e7eb" font-family="system-ui,sans-serif" font-size="10">Thomas Berg</text>
  <text x="400" y="328" fill="#9ca3af" font-family="system-ui,sans-serif" font-size="10">t.berg@corp.de</text>
  <text x="580" y="328" fill="#9ca3af" font-family="system-ui,sans-serif" font-size="10">8</text>
  <text x="660" y="328" fill="#e5e7eb" font-family="system-ui,sans-serif" font-size="10">$3,120</text>
  <text x="740" y="328" fill="#9ca3af" font-family="system-ui,sans-serif" font-size="10">Corporate</text>
  <rect x="820" y="316" width="44" height="16" rx="4" fill="#2e1065"/>
  <text x="828" y="327" fill="#a78bfa" font-family="system-ui,sans-serif" font-size="9">VIP</text>
  <line x1="268" y1="336" x2="876" y2="336" stroke="#ffffff" stroke-opacity="0.04"/>  <text x="268" y="356" fill="#e5e7eb" font-family="system-ui,sans-serif" font-size="10">Anna Kowalski</text>
  <text x="400" y="356" fill="#9ca3af" font-family="system-ui,sans-serif" font-size="10">anna.k@gmail.com</text>
  <text x="580" y="356" fill="#9ca3af" font-family="system-ui,sans-serif" font-size="10">3</text>
  <text x="660" y="356" fill="#e5e7eb" font-family="system-ui,sans-serif" font-size="10">$986</text>
  <text x="740" y="356" fill="#9ca3af" font-family="system-ui,sans-serif" font-size="10">Leisure</text>
  <line x1="268" y1="364" x2="876" y2="364" stroke="#ffffff" stroke-opacity="0.04"/>  <text x="268" y="384" fill="#e5e7eb" font-family="system-ui,sans-serif" font-size="10">James Morales</text>
  <text x="400" y="384" fill="#9ca3af" font-family="system-ui,sans-serif" font-size="10">j.morales@outlook.com</text>
  <text x="580" y="384" fill="#9ca3af" font-family="system-ui,sans-serif" font-size="10">5</text>
  <text x="660" y="384" fill="#e5e7eb" font-family="system-ui,sans-serif" font-size="10">$2,340</text>
  <text x="740" y="384" fill="#9ca3af" font-family="system-ui,sans-serif" font-size="10">Business</text>
  <line x1="268" y1="392" x2="876" y2="392" stroke="#ffffff" stroke-opacity="0.04"/>  <text x="268" y="412" fill="#e5e7eb" font-family="system-ui,sans-serif" font-size="10">Elena Popov</text>
  <text x="400" y="412" fill="#9ca3af" font-family="system-ui,sans-serif" font-size="10">elena.p@mail.ru</text>
  <text x="580" y="412" fill="#9ca3af" font-family="system-ui,sans-serif" font-size="10">2</text>
  <text x="660" y="412" fill="#e5e7eb" font-family="system-ui,sans-serif" font-size="10">$490</text>
  <text x="740" y="412" fill="#9ca3af" font-family="system-ui,sans-serif" font-size="10">Leisure</text>
  <line x1="268" y1="420" x2="876" y2="420" stroke="#ffffff" stroke-opacity="0.04"/>  <text x="268" y="440" fill="#e5e7eb" font-family="system-ui,sans-serif" font-size="10">Robert Kim</text>
  <text x="400" y="440" fill="#9ca3af" font-family="system-ui,sans-serif" font-size="10">r.kim@company.com</text>
  <text x="580" y="440" fill="#9ca3af" font-family="system-ui,sans-serif" font-size="10">15</text>
  <text x="660" y="440" fill="#e5e7eb" font-family="system-ui,sans-serif" font-size="10">$6,780</text>
  <text x="740" y="440" fill="#9ca3af" font-family="system-ui,sans-serif" font-size="10">Corporate</text>
  <rect x="820" y="428" width="44" height="16" rx="4" fill="#2e1065"/>
  <text x="828" y="439" fill="#a78bfa" font-family="system-ui,sans-serif" font-size="9">VIP</text>
  <line x1="268" y1="448" x2="876" y2="448" stroke="#ffffff" stroke-opacity="0.04"/>  <text x="268" y="468" fill="#e5e7eb" font-family="system-ui,sans-serif" font-size="10">Lisa Hartmann</text>
  <text x="400" y="468" fill="#9ca3af" font-family="system-ui,sans-serif" font-size="10">lisa.h@web.de</text>
  <text x="580" y="468" fill="#9ca3af" font-family="system-ui,sans-serif" font-size="10">1</text>
  <text x="660" y="468" fill="#e5e7eb" font-family="system-ui,sans-serif" font-size="10">$756</text>
  <text x="740" y="468" fill="#9ca3af" font-family="system-ui,sans-serif" font-size="10">New</text>
  <line x1="268" y1="476" x2="876" y2="476" stroke="#ffffff" stroke-opacity="0.04"/>  <text x="268" y="496" fill="#e5e7eb" font-family="system-ui,sans-serif" font-size="10">Michael Wong</text>
  <text x="400" y="496" fill="#9ca3af" font-family="system-ui,sans-serif" font-size="10">m.wong@travel.io</text>
  <text x="580" y="496" fill="#9ca3af" font-family="system-ui,sans-serif" font-size="10">6</text>
  <text x="660" y="496" fill="#e5e7eb" font-family="system-ui,sans-serif" font-size="10">$2,890</text>
  <text x="740" y="496" fill="#9ca3af" font-family="system-ui,sans-serif" font-size="10">Loyalty</text>
  <line x1="268" y1="504" x2="876" y2="504" stroke="#ffffff" stroke-opacity="0.04"/>
  <rect x="908" y="224" width="352" height="384" rx="14" fill="#171b22" stroke="#ffffff" stroke-opacity="0.08"/>
  <text x="924" y="252" fill="#e5e7eb" font-family="system-ui,sans-serif" font-size="13" font-weight="600">Segments</text>
  <rect x="924" y="268" width="320" height="56" rx="8" fill="#141820"/>
  <text x="936" y="288" fill="#6b7280" font-family="system-ui,sans-serif" font-size="9">LOYALTY</text>
  <text x="936" y="308" fill="#f9fafb" font-family="system-ui,sans-serif" font-size="18" font-weight="600">342</text>
  <text x="980" y="308" fill="#9ca3af" font-family="system-ui,sans-serif" font-size="10">guests - 27%</text>
  <rect x="924" y="336" width="320" height="56" rx="8" fill="#141820"/>
  <text x="936" y="356" fill="#6b7280" font-family="system-ui,sans-serif" font-size="9">CORPORATE</text>
  <text x="936" y="376" fill="#f9fafb" font-family="system-ui,sans-serif" font-size="18" font-weight="600">218</text>
  <text x="980" y="376" fill="#9ca3af" font-family="system-ui,sans-serif" font-size="10">guests - 17%</text>
  <rect x="924" y="404" width="320" height="56" rx="8" fill="#141820"/>
  <text x="936" y="424" fill="#6b7280" font-family="system-ui,sans-serif" font-size="9">LEISURE</text>
  <text x="936" y="444" fill="#f9fafb" font-family="system-ui,sans-serif" font-size="18" font-weight="600">524</text>
  <text x="980" y="444" fill="#9ca3af" font-family="system-ui,sans-serif" font-size="10">guests - 41%</text>
  <rect x="924" y="472" width="320" height="56" rx="8" fill="#141820"/>
  <text x="936" y="492" fill="#6b7280" font-family="system-ui,sans-serif" font-size="9">NEW</text>
  <text x="936" y="512" fill="#f9fafb" font-family="system-ui,sans-serif" font-size="18" font-weight="600">200</text>
  <text x="980" y="512" fill="#9ca3af" font-family="system-ui,sans-serif" font-size="10">guests - 15%</text>
  <text x="924" y="560" fill="#e5e7eb" font-family="system-ui,sans-serif" font-size="12" font-weight="600">VIP program</text>
  <text x="924" y="580" fill="#6b7280" font-family="system-ui,sans-serif" font-size="10">86 active members</text>
  <rect x="924" y="592" width="320" height="6" rx="3" fill="#1f2937"/>
  <rect x="924" y="592" width="280" height="6" rx="3" fill="#a78bfa"/>
  <rect x="252" y="624" width="1008" height="152" rx="14" fill="#171b22" stroke="#ffffff" stroke-opacity="0.08"/>
  <text x="268" y="652" fill="#e5e7eb" font-family="system-ui,sans-serif" font-size="13" font-weight="600">Recent guest activity</text>
  <circle cx="274" cy="678" r="3" fill="#a78bfa"/>
  <text x="286" y="682" fill="#e5e7eb" font-family="system-ui,sans-serif" font-size="11">Sarah Chen upgraded to Suite 501</text>
  <text x="286" y="698" fill="#6b7280" font-family="system-ui,sans-serif" font-size="10">2 hours ago</text>
  <circle cx="274" cy="718" r="3" fill="#6b7280"/>
  <text x="286" y="722" fill="#e5e7eb" font-family="system-ui,sans-serif" font-size="11">Robert Kim added to VIP program</text>
  <text x="286" y="738" fill="#6b7280" font-family="system-ui,sans-serif" font-size="10">Yesterday</text>
  <circle cx="574" cy="678" r="3" fill="#6b7280"/>
  <text x="586" y="682" fill="#e5e7eb" font-family="system-ui,sans-serif" font-size="11">Anna Kowalski first stay completed</text>
  <text x="586" y="698" fill="#6b7280" font-family="system-ui,sans-serif" font-size="10">Jul 9</text>
  <circle cx="574" cy="718" r="3" fill="#6b7280"/>
  <text x="586" y="722" fill="#e5e7eb" font-family="system-ui,sans-serif" font-size="11">Thomas Berg corporate rate applied</text>
  <text x="586" y="738" fill="#6b7280" font-family="system-ui,sans-serif" font-size="10">Jul 8</text>
</svg>
