<?xml version="1.0" encoding="UTF-8"?>
<svg xmlns="http://www.w3.org/2000/svg" width="1280" height="800" viewBox="0 0 1280 800" fill="none">
  <rect width="1280" height="800" fill="#0f1115"/>
  <rect x="0" y="0" width="220" height="800" fill="#12151b"/>
  <rect x="219" y="0" width="1" height="800" fill="#ffffff" opacity="0.08"/>
  <text x="36" y="39" fill="#e8eaed" font-family="system-ui,sans-serif" font-size="12" font-weight="600">Monavel</text>
  <text x="32" y="88" fill="#6b7280" font-family="system-ui,sans-serif" font-size="10" letter-spacing="0.08em">WORKSPACES</text>
  <rect x="24" y="104" width="180" height="24" rx="6" fill="#141820"/>
  <text x="36" y="120" fill="#9ca3af" font-family="system-ui,sans-serif" font-size="11" font-weight="400">Dashboard</text>
  <rect x="24" y="132" width="180" height="24" rx="6" fill="#141820"/>
  <text x="36" y="148" fill="#9ca3af" font-family="system-ui,sans-serif" font-size="11" font-weight="400">Bookings</text>
  <rect x="24" y="160" width="180" height="24" rx="6" fill="#141820"/>
  <text x="36" y="176" fill="#9ca3af" font-family="system-ui,sans-serif" font-size="11" font-weight="400">Guests</text>
  <rect x="24" y="188" width="180" height="24" rx="6" fill="#f59e0b33"/>
  <text x="36" y="204" fill="#f9fafb" font-family="system-ui,sans-serif" font-size="11" font-weight="600">Rooms</text>
  <rect x="24" y="216" width="180" height="24" rx="6" fill="#141820"/>
  <text x="36" y="232" fill="#9ca3af" font-family="system-ui,sans-serif" font-size="11" font-weight="400">Calendar</text>
  <rect x="24" y="244" width="180" height="24" rx="6" fill="#141820"/>
  <text x="36" y="260" fill="#9ca3af" font-family="system-ui,sans-serif" font-size="11" font-weight="400">Revenue</text>
  <rect x="24" y="272" width="180" height="24" rx="6" fill="#141820"/>
  <text x="36" y="288" fill="#9ca3af" font-family="system-ui,sans-serif" font-size="11" font-weight="400">Knowledge</text>
  <rect x="24" y="300" width="180" height="24" rx="6" fill="#141820"/>
  <text x="36" y="316" fill="#9ca3af" font-family="system-ui,sans-serif" font-size="11" font-weight="400">Reception AI</text>
  <rect x="220" y="0" width="1060" height="800" fill="#0f1115"/>
  <text x="252" y="48" fill="#f9fafb" font-family="system-ui,sans-serif" font-size="20" font-weight="600">Rooms</text>
  <text x="252" y="72" fill="#6b7280" font-family="system-ui,sans-serif" font-size="12">app.monavel.com/rooms</text>
  <rect x="252" y="88" width="180" height="24" rx="12" fill="#f59e0b22"/>
  <text x="264" y="104" fill="#f59e0b" font-family="system-ui,sans-serif" font-size="11" font-weight="600">Connected by AI</text>
  <rect x="1140" y="36" width="100" height="32" rx="8" fill="#171b22" stroke="#ffffff" stroke-opacity="0.08"/>
  <circle cx="1158" cy="52" r="10" fill="#1f2937"/>
  <text x="1174" y="56" fill="#9ca3af" font-family="system-ui,sans-serif" font-size="11">Hotel Aurora</text>
  <rect x="252" y="120" width="230" height="88" rx="12" fill="#171b22" stroke="#ffffff" stroke-opacity="0.08"/>
  <text x="268" y="144" fill="#6b7280" font-family="system-ui,sans-serif" font-size="11">Occupied</text>
  <text x="268" y="172" fill="#f9fafb" font-family="system-ui,sans-serif" font-size="22" font-weight="600">18</text>
  <text x="298" y="172" fill="#f59e0b" font-family="system-ui,sans-serif" font-size="11" font-weight="600">75%</text>
  <polyline points="268,192 288,188 308,194 328,184 348,190 368,182 388,186 408,178 428,184 448,176" fill="none" stroke="#f59e0b" stroke-width="1.5" stroke-opacity="0.65"/>
  <rect x="498" y="120" width="230" height="88" rx="12" fill="#171b22" stroke="#ffffff" stroke-opacity="0.08"/>
  <text x="514" y="144" fill="#6b7280" font-family="system-ui,sans-serif" font-size="11">Available</text>
  <text x="514" y="172" fill="#f9fafb" font-family="system-ui,sans-serif" font-size="22" font-weight="600">4</text>
  <text x="533" y="172" fill="#f59e0b" font-family="system-ui,sans-serif" font-size="11" font-weight="600">rooms</text>
  <polyline points="514,192 534,188 554,194 574,184 594,190 614,182 634,186 654,178 674,184 694,176" fill="none" stroke="#f59e0b" stroke-width="1.5" stroke-opacity="0.65"/>
  <rect x="744" y="120" width="230" height="88" rx="12" fill="#171b22" stroke="#ffffff" stroke-opacity="0.08"/>
  <text x="760" y="144" fill="#6b7280" font-family="system-ui,sans-serif" font-size="11">Cleaning</text>
  <text x="760" y="172" fill="#f9fafb" font-family="system-ui,sans-serif" font-size="22" font-weight="600">5</text>
  <text x="779" y="172" fill="#f59e0b" font-family="system-ui,sans-serif" font-size="11" font-weight="600">in queue</text>
  <polyline points="760,192 780,188 800,194 820,184 840,190 860,182 880,186 900,178 920,184 940,176" fill="none" stroke="#f59e0b" stroke-width="1.5" stroke-opacity="0.65"/>
  <rect x="990" y="120" width="230" height="88" rx="12" fill="#171b22" stroke="#ffffff" stroke-opacity="0.08"/>
  <text x="1006" y="144" fill="#6b7280" font-family="system-ui,sans-serif" font-size="11">Maintenance</text>
  <text x="1006" y="172" fill="#f9fafb" font-family="system-ui,sans-serif" font-size="22" font-weight="600">2</text>
  <text x="1025" y="172" fill="#ef4444" font-family="system-ui,sans-serif" font-size="11" font-weight="600">blocked</text>
  <polyline points="1006,192 1026,188 1046,194 1066,184 1086,190 1106,182 1126,186 1146,178 1166,184 1186,176" fill="none" stroke="#f59e0b" stroke-width="1.5" stroke-opacity="0.65"/>
  <rect x="252" y="224" width="640" height="384" rx="14" fill="#171b22" stroke="#ffffff" stroke-opacity="0.08"/>
  <text x="268" y="252" fill="#e5e7eb" font-family="system-ui,sans-serif" font-size="13" font-weight="600">Room status grid</text>
  <text x="268" y="270" fill="#6b7280" font-family="system-ui,sans-serif" font-size="10">Floor 1-4 - 24 rooms</text>
  <text x="268" y="290" fill="#6b7280" font-family="system-ui,sans-serif" font-size="9" font-weight="600">ALL FLOORS</text>

  <rect x="268" y="300" width="64" height="44" rx="6" fill="#141820" stroke="#38bdf8" stroke-opacity="0.4"/>
  <text x="276" y="318" fill="#e5e7eb" font-family="system-ui,sans-serif" font-size="11" font-weight="600">101</text>
  <text x="276" y="334" fill="#38bdf8" font-family="system-ui,sans-serif" font-size="9">Occupied</text>
  <rect x="340" y="300" width="64" height="44" rx="6" fill="#141820" stroke="#10b981" stroke-opacity="0.4"/>
  <text x="348" y="318" fill="#e5e7eb" font-family="system-ui,sans-serif" font-size="11" font-weight="600">102</text>
  <text x="348" y="334" fill="#10b981" font-family="system-ui,sans-serif" font-size="9">Clean</text>
  <rect x="412" y="300" width="64" height="44" rx="6" fill="#141820" stroke="#f59e0b" stroke-opacity="0.4"/>
  <text x="420" y="318" fill="#e5e7eb" font-family="system-ui,sans-serif" font-size="11" font-weight="600">103</text>
  <text x="420" y="334" fill="#f59e0b" font-family="system-ui,sans-serif" font-size="9">Dirty</text>
  <rect x="484" y="300" width="64" height="44" rx="6" fill="#141820" stroke="#38bdf8" stroke-opacity="0.4"/>
  <text x="492" y="318" fill="#e5e7eb" font-family="system-ui,sans-serif" font-size="11" font-weight="600">104</text>
  <text x="492" y="334" fill="#38bdf8" font-family="system-ui,sans-serif" font-size="9">Occupied</text>
  <rect x="556" y="300" width="64" height="44" rx="6" fill="#141820" stroke="#ef4444" stroke-opacity="0.4"/>
  <text x="564" y="318" fill="#e5e7eb" font-family="system-ui,sans-serif" font-size="11" font-weight="600">105</text>
  <text x="564" y="334" fill="#ef4444" font-family="system-ui,sans-serif" font-size="9">Maint.</text>
  <rect x="628" y="300" width="64" height="44" rx="6" fill="#141820" stroke="#10b981" stroke-opacity="0.4"/>
  <text x="636" y="318" fill="#e5e7eb" font-family="system-ui,sans-serif" font-size="11" font-weight="600">106</text>
  <text x="636" y="334" fill="#10b981" font-family="system-ui,sans-serif" font-size="9">Clean</text>
  <rect x="268" y="352" width="64" height="44" rx="6" fill="#141820" stroke="#38bdf8" stroke-opacity="0.4"/>
  <text x="276" y="370" fill="#e5e7eb" font-family="system-ui,sans-serif" font-size="11" font-weight="600">201</text>
  <text x="276" y="386" fill="#38bdf8" font-family="system-ui,sans-serif" font-size="9">Occupied</text>
  <rect x="340" y="352" width="64" height="44" rx="6" fill="#141820" stroke="#10b981" stroke-opacity="0.4"/>
  <text x="348" y="370" fill="#e5e7eb" font-family="system-ui,sans-serif" font-size="11" font-weight="600">202</text>
  <text x="348" y="386" fill="#10b981" font-family="system-ui,sans-serif" font-size="9">Clean</text>
  <rect x="412" y="352" width="64" height="44" rx="6" fill="#141820" stroke="#f59e0b" stroke-opacity="0.4"/>
  <text x="420" y="370" fill="#e5e7eb" font-family="system-ui,sans-serif" font-size="11" font-weight="600">203</text>
  <text x="420" y="386" fill="#f59e0b" font-family="system-ui,sans-serif" font-size="9">Dirty</text>
  <rect x="484" y="352" width="64" height="44" rx="6" fill="#141820" stroke="#10b981" stroke-opacity="0.4"/>
  <text x="492" y="370" fill="#e5e7eb" font-family="system-ui,sans-serif" font-size="11" font-weight="600">204</text>
  <text x="492" y="386" fill="#10b981" font-family="system-ui,sans-serif" font-size="9">Clean</text>
  <rect x="556" y="352" width="64" height="44" rx="6" fill="#141820" stroke="#38bdf8" stroke-opacity="0.4"/>
  <text x="564" y="370" fill="#e5e7eb" font-family="system-ui,sans-serif" font-size="11" font-weight="600">205</text>
  <text x="564" y="386" fill="#38bdf8" font-family="system-ui,sans-serif" font-size="9">Occupied</text>
  <rect x="628" y="352" width="64" height="44" rx="6" fill="#141820" stroke="#10b981" stroke-opacity="0.4"/>
  <text x="636" y="370" fill="#e5e7eb" font-family="system-ui,sans-serif" font-size="11" font-weight="600">206</text>
  <text x="636" y="386" fill="#10b981" font-family="system-ui,sans-serif" font-size="9">Clean</text>
  <rect x="268" y="404" width="64" height="44" rx="6" fill="#141820" stroke="#38bdf8" stroke-opacity="0.4"/>
  <text x="276" y="422" fill="#e5e7eb" font-family="system-ui,sans-serif" font-size="11" font-weight="600">301</text>
  <text x="276" y="438" fill="#38bdf8" font-family="system-ui,sans-serif" font-size="9">Occupied</text>
  <rect x="340" y="404" width="64" height="44" rx="6" fill="#141820" stroke="#f59e0b" stroke-opacity="0.4"/>
  <text x="348" y="422" fill="#e5e7eb" font-family="system-ui,sans-serif" font-size="11" font-weight="600">302</text>
  <text x="348" y="438" fill="#f59e0b" font-family="system-ui,sans-serif" font-size="9">Dirty</text>
  <rect x="412" y="404" width="64" height="44" rx="6" fill="#141820" stroke="#10b981" stroke-opacity="0.4"/>
  <text x="420" y="422" fill="#e5e7eb" font-family="system-ui,sans-serif" font-size="11" font-weight="600">303</text>
  <text x="420" y="438" fill="#10b981" font-family="system-ui,sans-serif" font-size="9">Clean</text>
  <rect x="484" y="404" width="64" height="44" rx="6" fill="#141820" stroke="#38bdf8" stroke-opacity="0.4"/>
  <text x="492" y="422" fill="#e5e7eb" font-family="system-ui,sans-serif" font-size="11" font-weight="600">304</text>
  <text x="492" y="438" fill="#38bdf8" font-family="system-ui,sans-serif" font-size="9">Occupied</text>
  <rect x="556" y="404" width="64" height="44" rx="6" fill="#141820" stroke="#38bdf8" stroke-opacity="0.4"/>
  <text x="564" y="422" fill="#e5e7eb" font-family="system-ui,sans-serif" font-size="11" font-weight="600">305</text>
  <text x="564" y="438" fill="#38bdf8" font-family="system-ui,sans-serif" font-size="9">Occupied</text>
  <rect x="628" y="404" width="64" height="44" rx="6" fill="#141820" stroke="#10b981" stroke-opacity="0.4"/>
  <text x="636" y="422" fill="#e5e7eb" font-family="system-ui,sans-serif" font-size="11" font-weight="600">306</text>
  <text x="636" y="438" fill="#10b981" font-family="system-ui,sans-serif" font-size="9">Clean</text>
  <rect x="268" y="456" width="64" height="44" rx="6" fill="#141820" stroke="#10b981" stroke-opacity="0.4"/>
  <text x="276" y="474" fill="#e5e7eb" font-family="system-ui,sans-serif" font-size="11" font-weight="600">401</text>
  <text x="276" y="490" fill="#10b981" font-family="system-ui,sans-serif" font-size="9">Clean</text>
  <rect x="340" y="456" width="64" height="44" rx="6" fill="#141820" stroke="#38bdf8" stroke-opacity="0.4"/>
  <text x="348" y="474" fill="#e5e7eb" font-family="system-ui,sans-serif" font-size="11" font-weight="600">402</text>
  <text x="348" y="490" fill="#38bdf8" font-family="system-ui,sans-serif" font-size="9">Occupied</text>
  <rect x="412" y="456" width="64" height="44" rx="6" fill="#141820" stroke="#10b981" stroke-opacity="0.4"/>
  <text x="420" y="474" fill="#e5e7eb" font-family="system-ui,sans-serif" font-size="11" font-weight="600">403</text>
  <text x="420" y="490" fill="#10b981" font-family="system-ui,sans-serif" font-size="9">Clean</text>
  <rect x="484" y="456" width="64" height="44" rx="6" fill="#141820" stroke="#f59e0b" stroke-opacity="0.4"/>
  <text x="492" y="474" fill="#e5e7eb" font-family="system-ui,sans-serif" font-size="11" font-weight="600">404</text>
  <text x="492" y="490" fill="#f59e0b" font-family="system-ui,sans-serif" font-size="9">Dirty</text>
  <rect x="556" y="456" width="64" height="44" rx="6" fill="#141820" stroke="#ef4444" stroke-opacity="0.4"/>
  <text x="564" y="474" fill="#e5e7eb" font-family="system-ui,sans-serif" font-size="11" font-weight="600">405</text>
  <text x="564" y="490" fill="#ef4444" font-family="system-ui,sans-serif" font-size="9">Maint.</text>
  <rect x="628" y="456" width="64" height="44" rx="6" fill="#141820" stroke="#10b981" stroke-opacity="0.4"/>
  <text x="636" y="474" fill="#e5e7eb" font-family="system-ui,sans-serif" font-size="11" font-weight="600">406</text>
  <text x="636" y="490" fill="#10b981" font-family="system-ui,sans-serif" font-size="9">Clean</text>
  <rect x="908" y="224" width="352" height="384" rx="14" fill="#171b22" stroke="#ffffff" stroke-opacity="0.08"/>
  <text x="924" y="252" fill="#e5e7eb" font-family="system-ui,sans-serif" font-size="13" font-weight="600">Housekeeping queue</text>
  <text x="924" y="270" fill="#6b7280" font-family="system-ui,sans-serif" font-size="10">5 rooms pending</text>
  <rect x="924" y="284" width="320" height="48" rx="8" fill="#141820"/>
  <text x="936" y="304" fill="#e5e7eb" font-family="system-ui,sans-serif" font-size="11" font-weight="500">Room 103 - Checkout clean</text>
  <text x="936" y="320" fill="#f59e0b" font-family="system-ui,sans-serif" font-size="10">Priority - due 14:00</text>
  <rect x="924" y="340" width="320" height="48" rx="8" fill="#141820"/>
  <text x="936" y="360" fill="#e5e7eb" font-family="system-ui,sans-serif" font-size="11" font-weight="500">Room 203 - Checkout clean</text>
  <text x="936" y="376" fill="#9ca3af" font-family="system-ui,sans-serif" font-size="10">Due 15:30</text>
  <rect x="924" y="396" width="320" height="48" rx="8" fill="#141820"/>
  <text x="936" y="416" fill="#e5e7eb" font-family="system-ui,sans-serif" font-size="11" font-weight="500">Room 302 - Stayover service</text>
  <text x="936" y="432" fill="#9ca3af" font-family="system-ui,sans-serif" font-size="10">Due 16:00</text>
  <rect x="924" y="452" width="320" height="48" rx="8" fill="#141820"/>
  <text x="936" y="472" fill="#e5e7eb" font-family="system-ui,sans-serif" font-size="11" font-weight="500">Room 404 - Checkout clean</text>
  <text x="936" y="488" fill="#9ca3af" font-family="system-ui,sans-serif" font-size="10">Due 17:00</text>
  <rect x="924" y="508" width="320" height="48" rx="8" fill="#141820"/>
  <text x="936" y="528" fill="#e5e7eb" font-family="system-ui,sans-serif" font-size="11" font-weight="500">Room 105 - Maintenance</text>
  <text x="936" y="544" fill="#ef4444" font-family="system-ui,sans-serif" font-size="10">Blocked - HVAC repair</text>
  <text x="924" y="580" fill="#6b7280" font-family="system-ui,sans-serif" font-size="10">Assigned: Maria (HK), Alex (HK)</text>
  <rect x="252" y="624" width="1008" height="152" rx="14" fill="#171b22" stroke="#ffffff" stroke-opacity="0.08"/>
  <text x="268" y="652" fill="#e5e7eb" font-family="system-ui,sans-serif" font-size="13" font-weight="600">Turnover schedule</text>
  <text x="268" y="680" fill="#e5e7eb" font-family="system-ui,sans-serif" font-size="11">Room 201 - Check-out 11:00, new arrival 15:00</text>
  <text x="268" y="700" fill="#9ca3af" font-family="system-ui,sans-serif" font-size="10">Guest: Thomas Berg - 4h turnaround window</text>
  <text x="268" y="730" fill="#e5e7eb" font-family="system-ui,sans-serif" font-size="11">Room 305 - Check-out 12:00, new arrival 14:00</text>
  <text x="268" y="750" fill="#9ca3af" font-family="system-ui,sans-serif" font-size="10">Guest: Sarah Chen - 2h turnaround window</text>
  <text x="700" y="680" fill="#e5e7eb" font-family="system-ui,sans-serif" font-size="11">Room 112 - Check-out 10:00, new arrival 16:00</text>
  <text x="700" y="700" fill="#9ca3af" font-family="system-ui,sans-serif" font-size="10">Guest: Maria Santos - 6h turnaround window</text>
</svg>
