<?xml version="1.0" encoding="UTF-8"?>
<svg xmlns="http://www.w3.org/2000/svg" width="1280" height="800" viewBox="0 0 1280 800" fill="none">
  <rect width="1280" height="800" fill="#0f1115"/>
  <rect x="0" y="0" width="220" height="800" fill="#12151b"/>
  <rect x="219" y="0" width="1" height="800" fill="#ffffff" opacity="0.08"/>
  <text x="36" y="39" fill="#e8eaed" font-family="system-ui,sans-serif" font-size="12" font-weight="600">Monavel</text>
  <text x="32" y="88" fill="#6b7280" font-family="system-ui,sans-serif" font-size="10" letter-spacing="0.08em">WORKSPACES</text>
  <rect x="24" y="104" width="180" height="24" rx="6" fill="#141820"/>
  <text x="36" y="120" fill="#9ca3af" font-family="system-ui,sans-serif" font-size="11" font-weight="400">Dashboard</text>
  <rect x="24" y="132" width="180" height="24" rx="6" fill="#38bdf833"/>
  <text x="36" y="148" fill="#f9fafb" font-family="system-ui,sans-serif" font-size="11" font-weight="600">Bookings</text>
  <rect x="24" y="160" width="180" height="24" rx="6" fill="#141820"/>
  <text x="36" y="176" fill="#9ca3af" font-family="system-ui,sans-serif" font-size="11" font-weight="400">Guests</text>
  <rect x="24" y="188" width="180" height="24" rx="6" fill="#141820"/>
  <text x="36" y="204" fill="#9ca3af" font-family="system-ui,sans-serif" font-size="11" font-weight="400">Rooms</text>
  <rect x="24" y="216" width="180" height="24" rx="6" fill="#141820"/>
  <text x="36" y="232" fill="#9ca3af" font-family="system-ui,sans-serif" font-size="11" font-weight="400">Calendar</text>
  <rect x="24" y="244" width="180" height="24" rx="6" fill="#141820"/>
  <text x="36" y="260" fill="#9ca3af" font-family="system-ui,sans-serif" font-size="11" font-weight="400">Revenue</text>
  <rect x="24" y="272" width="180" height="24" rx="6" fill="#141820"/>
  <text x="36" y="288" fill="#9ca3af" font-family="system-ui,sans-serif" font-size="11" font-weight="400">Knowledge</text>
  <rect x="24" y="300" width="180" height="24" rx="6" fill="#141820"/>
  <text x="36" y="316" fill="#9ca3af" font-family="system-ui,sans-serif" font-size="11" font-weight="400">Reception AI</text>
  <rect x="220" y="0" width="1060" height="800" fill="#0f1115"/>
  <text x="252" y="48" fill="#f9fafb" font-family="system-ui,sans-serif" font-size="20" font-weight="600">Bookings</text>
  <text x="252" y="72" fill="#6b7280" font-family="system-ui,sans-serif" font-size="12">app.monavel.com/bookings</text>
  <rect x="252" y="88" width="180" height="24" rx="12" fill="#38bdf822"/>
  <text x="264" y="104" fill="#38bdf8" font-family="system-ui,sans-serif" font-size="11" font-weight="600">Connected by AI</text>
  <rect x="1140" y="36" width="100" height="32" rx="8" fill="#171b22" stroke="#ffffff" stroke-opacity="0.08"/>
  <circle cx="1158" cy="52" r="10" fill="#1f2937"/>
  <text x="1174" y="56" fill="#9ca3af" font-family="system-ui,sans-serif" font-size="11">Hotel Aurora</text>
  <rect x="252" y="120" width="230" height="88" rx="12" fill="#171b22" stroke="#ffffff" stroke-opacity="0.08"/>
  <text x="268" y="144" fill="#6b7280" font-family="system-ui,sans-serif" font-size="11">New bookings</text>
  <text x="268" y="172" fill="#f9fafb" font-family="system-ui,sans-serif" font-size="22" font-weight="600">12</text>
  <text x="298" y="172" fill="#38bdf8" font-family="system-ui,sans-serif" font-size="11" font-weight="600">today</text>
  <polyline points="268,192 288,188 308,194 328,184 348,190 368,182 388,186 408,178 428,184 448,176" fill="none" stroke="#38bdf8" stroke-width="1.5" stroke-opacity="0.65"/>
  <rect x="498" y="120" width="230" height="88" rx="12" fill="#171b22" stroke="#ffffff" stroke-opacity="0.08"/>
  <text x="514" y="144" fill="#6b7280" font-family="system-ui,sans-serif" font-size="11">Confirmed</text>
  <text x="514" y="172" fill="#f9fafb" font-family="system-ui,sans-serif" font-size="22" font-weight="600">86</text>
  <text x="544" y="172" fill="#38bdf8" font-family="system-ui,sans-serif" font-size="11" font-weight="600">+4</text>
  <polyline points="514,192 534,188 554,194 574,184 594,190 614,182 634,186 654,178 674,184 694,176" fill="none" stroke="#38bdf8" stroke-width="1.5" stroke-opacity="0.65"/>
  <rect x="744" y="120" width="230" height="88" rx="12" fill="#171b22" stroke="#ffffff" stroke-opacity="0.08"/>
  <text x="760" y="144" fill="#6b7280" font-family="system-ui,sans-serif" font-size="11">Pending</text>
  <text x="760" y="172" fill="#f9fafb" font-family="system-ui,sans-serif" font-size="22" font-weight="600">7</text>
  <text x="779" y="172" fill="#f59e0b" font-family="system-ui,sans-serif" font-size="11" font-weight="600">review</text>
  <polyline points="760,192 780,188 800,194 820,184 840,190 860,182 880,186 900,178 920,184 940,176" fill="none" stroke="#38bdf8" stroke-width="1.5" stroke-opacity="0.65"/>
  <rect x="990" y="120" width="230" height="88" rx="12" fill="#171b22" stroke="#ffffff" stroke-opacity="0.08"/>
  <text x="1006" y="144" fill="#6b7280" font-family="system-ui,sans-serif" font-size="11">Cancelled</text>
  <text x="1006" y="172" fill="#f9fafb" font-family="system-ui,sans-serif" font-size="22" font-weight="600">3</text>
  <text x="1025" y="172" fill="#ef4444" font-family="system-ui,sans-serif" font-size="11" font-weight="600">this week</text>
  <polyline points="1006,192 1026,188 1046,194 1066,184 1086,190 1106,182 1126,186 1146,178 1166,184 1186,176" fill="none" stroke="#38bdf8" stroke-width="1.5" stroke-opacity="0.65"/>
  <rect x="252" y="224" width="1008" height="48" rx="14" fill="#171b22" stroke="#ffffff" stroke-opacity="0.08"/>
  <text x="268" y="254" fill="#6b7280" font-family="system-ui,sans-serif" font-size="10">Filters:</text>
  <rect x="328" y="236" width="72" height="24" rx="6" fill="#38bdf822" stroke="#38bdf8" stroke-opacity="0.3"/>
  <text x="340" y="252" fill="#38bdf8" font-family="system-ui,sans-serif" font-size="10" font-weight="600">All</text>
  <rect x="412" y="236" width="88" height="24" rx="6" fill="#141820"/>
  <text x="424" y="252" fill="#9ca3af" font-family="system-ui,sans-serif" font-size="10">Check-in</text>
  <rect x="512" y="236" width="88" height="24" rx="6" fill="#141820"/>
  <text x="524" y="252" fill="#9ca3af" font-family="system-ui,sans-serif" font-size="10">Check-out</text>
  <rect x="612" y="236" width="72" height="24" rx="6" fill="#141820"/>
  <text x="624" y="252" fill="#9ca3af" font-family="system-ui,sans-serif" font-size="10">Direct</text>
  <rect x="696" y="236" width="96" height="24" rx="6" fill="#141820"/>
  <text x="708" y="252" fill="#9ca3af" font-family="system-ui,sans-serif" font-size="10">OTA</text>
  <rect x="1100" y="236" width="144" height="24" rx="6" fill="#141820"/>
  <text x="1112" y="252" fill="#6b7280" font-family="system-ui,sans-serif" font-size="10">Search guest or ref...</text>
  <rect x="252" y="288" width="1008" height="320" rx="14" fill="#171b22" stroke="#ffffff" stroke-opacity="0.08"/>
  <text x="268" y="316" fill="#e5e7eb" font-family="system-ui,sans-serif" font-size="13" font-weight="600">Reservations</text>
  <text x="1180" y="316" fill="#6b7280" font-family="system-ui,sans-serif" font-size="10">38 total</text>
  <rect x="268" y="328" width="976" height="24" rx="4" fill="#141820"/>
  <text x="268" y="344" fill="#6b7280" font-family="system-ui,sans-serif" font-size="9" font-weight="600">GUEST</text>
  <text x="420" y="344" fill="#6b7280" font-family="system-ui,sans-serif" font-size="9" font-weight="600">REF</text>
  <text x="520" y="344" fill="#6b7280" font-family="system-ui,sans-serif" font-size="9" font-weight="600">ROOM</text>
  <text x="580" y="344" fill="#6b7280" font-family="system-ui,sans-serif" font-size="9" font-weight="600">DATES</text>
  <text x="720" y="344" fill="#6b7280" font-family="system-ui,sans-serif" font-size="9" font-weight="600">SOURCE</text>
  <text x="860" y="344" fill="#6b7280" font-family="system-ui,sans-serif" font-size="9" font-weight="600">AMOUNT</text>
  <text x="960" y="344" fill="#6b7280" font-family="system-ui,sans-serif" font-size="9" font-weight="600">STATUS</text>
  <line x1="268" y1="356" x2="1244" y2="356" stroke="#ffffff" stroke-opacity="0.06"/>  <text x="268" y="364" fill="#e5e7eb" font-family="system-ui,sans-serif" font-size="10">Anna Kowalski</text>
  <text x="420" y="364" fill="#9ca3af" font-family="system-ui,sans-serif" font-size="10">BK-4821</text>
  <text x="520" y="364" fill="#9ca3af" font-family="system-ui,sans-serif" font-size="10">305</text>
  <text x="580" y="364" fill="#9ca3af" font-family="system-ui,sans-serif" font-size="10">Jul 10-13</text>
  <text x="720" y="364" fill="#9ca3af" font-family="system-ui,sans-serif" font-size="10">Booking.com</text>
  <text x="860" y="364" fill="#e5e7eb" font-family="system-ui,sans-serif" font-size="10">$486</text>
  <rect x="960" y="352" width="70" height="16" rx="4" fill="#1a2e28"/>
  <text x="968" y="363" fill="#10b981" font-family="system-ui,sans-serif" font-size="9">Confirmed</text>
  <line x1="268" y1="372" x2="1244" y2="372" stroke="#ffffff" stroke-opacity="0.04"/>  <text x="268" y="392" fill="#e5e7eb" font-family="system-ui,sans-serif" font-size="10">Thomas Berg</text>
  <text x="420" y="392" fill="#9ca3af" font-family="system-ui,sans-serif" font-size="10">BK-4819</text>
  <text x="520" y="392" fill="#9ca3af" font-family="system-ui,sans-serif" font-size="10">201</text>
  <text x="580" y="392" fill="#9ca3af" font-family="system-ui,sans-serif" font-size="10">Jul 10-12</text>
  <text x="720" y="392" fill="#9ca3af" font-family="system-ui,sans-serif" font-size="10">Direct</text>
  <text x="860" y="392" fill="#e5e7eb" font-family="system-ui,sans-serif" font-size="10">$312</text>
  <rect x="960" y="380" width="76" height="16" rx="4" fill="#10b98122"/>
  <text x="968" y="391" fill="#10b981" font-family="system-ui,sans-serif" font-size="9">Checked in</text>
  <line x1="268" y1="400" x2="1244" y2="400" stroke="#ffffff" stroke-opacity="0.04"/>  <text x="268" y="420" fill="#e5e7eb" font-family="system-ui,sans-serif" font-size="10">Maria Santos</text>
  <text x="420" y="420" fill="#9ca3af" font-family="system-ui,sans-serif" font-size="10">BK-4815</text>
  <text x="520" y="420" fill="#9ca3af" font-family="system-ui,sans-serif" font-size="10">112</text>
  <text x="580" y="420" fill="#9ca3af" font-family="system-ui,sans-serif" font-size="10">Jul 11-14</text>
  <text x="720" y="420" fill="#9ca3af" font-family="system-ui,sans-serif" font-size="10">Expedia</text>
  <text x="860" y="420" fill="#e5e7eb" font-family="system-ui,sans-serif" font-size="10">$528</text>
  <rect x="960" y="408" width="70" height="16" rx="4" fill="#1a2e28"/>
  <text x="968" y="419" fill="#10b981" font-family="system-ui,sans-serif" font-size="9">Confirmed</text>
  <line x1="268" y1="428" x2="1244" y2="428" stroke="#ffffff" stroke-opacity="0.04"/>  <text x="268" y="448" fill="#e5e7eb" font-family="system-ui,sans-serif" font-size="10">James Morales</text>
  <text x="420" y="448" fill="#9ca3af" font-family="system-ui,sans-serif" font-size="10">BK-4812</text>
  <text x="520" y="448" fill="#9ca3af" font-family="system-ui,sans-serif" font-size="10">408</text>
  <text x="580" y="448" fill="#9ca3af" font-family="system-ui,sans-serif" font-size="10">Jul 12-16</text>
  <text x="720" y="448" fill="#9ca3af" font-family="system-ui,sans-serif" font-size="10">Airbnb</text>
  <text x="860" y="448" fill="#e5e7eb" font-family="system-ui,sans-serif" font-size="10">$892</text>
  <rect x="960" y="436" width="58" height="16" rx="4" fill="#422006"/>
  <text x="968" y="447" fill="#f59e0b" font-family="system-ui,sans-serif" font-size="9">Pending</text>
  <line x1="268" y1="456" x2="1244" y2="456" stroke="#ffffff" stroke-opacity="0.04"/>  <text x="268" y="476" fill="#e5e7eb" font-family="system-ui,sans-serif" font-size="10">Elena Popov</text>
  <text x="420" y="476" fill="#9ca3af" font-family="system-ui,sans-serif" font-size="10">BK-4808</text>
  <text x="520" y="476" fill="#9ca3af" font-family="system-ui,sans-serif" font-size="10">210</text>
  <text x="580" y="476" fill="#9ca3af" font-family="system-ui,sans-serif" font-size="10">Jul 13-15</text>
  <text x="720" y="476" fill="#9ca3af" font-family="system-ui,sans-serif" font-size="10">Direct</text>
  <text x="860" y="476" fill="#e5e7eb" font-family="system-ui,sans-serif" font-size="10">$245</text>
  <rect x="960" y="464" width="70" height="16" rx="4" fill="#1a2e28"/>
  <text x="968" y="475" fill="#10b981" font-family="system-ui,sans-serif" font-size="9">Confirmed</text>
  <line x1="268" y1="484" x2="1244" y2="484" stroke="#ffffff" stroke-opacity="0.04"/>  <text x="268" y="504" fill="#e5e7eb" font-family="system-ui,sans-serif" font-size="10">Robert Kim</text>
  <text x="420" y="504" fill="#9ca3af" font-family="system-ui,sans-serif" font-size="10">BK-4804</text>
  <text x="520" y="504" fill="#9ca3af" font-family="system-ui,sans-serif" font-size="10">118</text>
  <text x="580" y="504" fill="#9ca3af" font-family="system-ui,sans-serif" font-size="10">Jul 14-17</text>
  <text x="720" y="504" fill="#9ca3af" font-family="system-ui,sans-serif" font-size="10">Booking.com</text>
  <text x="860" y="504" fill="#e5e7eb" font-family="system-ui,sans-serif" font-size="10">$634</text>
  <rect x="960" y="492" width="70" height="16" rx="4" fill="#1a2e28"/>
  <text x="968" y="503" fill="#10b981" font-family="system-ui,sans-serif" font-size="9">Confirmed</text>
  <line x1="268" y1="512" x2="1244" y2="512" stroke="#ffffff" stroke-opacity="0.04"/>  <text x="268" y="532" fill="#e5e7eb" font-family="system-ui,sans-serif" font-size="10">Lisa Hartmann</text>
  <text x="420" y="532" fill="#9ca3af" font-family="system-ui,sans-serif" font-size="10">BK-4799</text>
  <text x="520" y="532" fill="#9ca3af" font-family="system-ui,sans-serif" font-size="10">402</text>
  <text x="580" y="532" fill="#9ca3af" font-family="system-ui,sans-serif" font-size="10">Jul 15-18</text>
  <text x="720" y="532" fill="#9ca3af" font-family="system-ui,sans-serif" font-size="10">Direct</text>
  <text x="860" y="532" fill="#e5e7eb" font-family="system-ui,sans-serif" font-size="10">$756</text>
  <rect x="960" y="520" width="70" height="16" rx="4" fill="#2a1215"/>
  <text x="968" y="531" fill="#ef4444" font-family="system-ui,sans-serif" font-size="9">Cancelled</text>
  <line x1="268" y1="540" x2="1244" y2="540" stroke="#ffffff" stroke-opacity="0.04"/>
  <rect x="252" y="624" width="496" height="152" rx="14" fill="#171b22" stroke="#ffffff" stroke-opacity="0.08"/>
  <text x="268" y="652" fill="#e5e7eb" font-family="system-ui,sans-serif" font-size="13" font-weight="600">Arrivals today</text>
  <text x="268" y="670" fill="#6b7280" font-family="system-ui,sans-serif" font-size="10">14 guests expected</text>
  <text x="268" y="700" fill="#e5e7eb" font-family="system-ui,sans-serif" font-size="11">Sarah Chen - Room 305 - 15:30</text>
  <text x="268" y="720" fill="#e5e7eb" font-family="system-ui,sans-serif" font-size="11">Michael Wong - Room 210 - 18:30</text>
  <text x="268" y="740" fill="#e5e7eb" font-family="system-ui,sans-serif" font-size="11">David Novak - Room 118 - 20:15</text>
  <text x="268" y="760" fill="#6b7280" font-family="system-ui,sans-serif" font-size="10">+11 more</text>
  <rect x="764" y="624" width="496" height="152" rx="14" fill="#171b22" stroke="#ffffff" stroke-opacity="0.08"/>
  <text x="780" y="652" fill="#e5e7eb" font-family="system-ui,sans-serif" font-size="13" font-weight="600">Booking sources</text>
  <text x="780" y="670" fill="#6b7280" font-family="system-ui,sans-serif" font-size="10">Last 30 days</text>
  <rect x="780" y="688" width="200" height="8" rx="4" fill="#141820"/>
  <rect x="780" y="688" width="80" height="8" rx="4" fill="#38bdf8"/>
  <text x="780" y="712" fill="#9ca3af" font-family="system-ui,sans-serif" font-size="10">Direct 40%</text>
  <rect x="780" y="724" width="200" height="8" rx="4" fill="#141820"/>
  <rect x="780" y="724" width="60" height="8" rx="4" fill="#38bdf8" opacity="0.7"/>
  <text x="780" y="748" fill="#9ca3af" font-family="system-ui,sans-serif" font-size="10">Booking.com 30%</text>
  <rect x="1000" y="688" width="200" height="8" rx="4" fill="#141820"/>
  <rect x="1000" y="688" width="40" height="8" rx="4" fill="#38bdf8" opacity="0.5"/>
  <text x="1000" y="712" fill="#9ca3af" font-family="system-ui,sans-serif" font-size="10">Expedia 20%</text>
  <rect x="1000" y="724" width="200" height="8" rx="4" fill="#141820"/>
  <rect x="1000" y="724" width="20" height="8" rx="4" fill="#38bdf8" opacity="0.35"/>
  <text x="1000" y="748" fill="#9ca3af" font-family="system-ui,sans-serif" font-size="10">Other 10%</text>
</svg>
