<?xml version="1.0" encoding="UTF-8"?>
<svg xmlns="http://www.w3.org/2000/svg" width="1280" height="800" viewBox="0 0 1280 800" fill="none">
  <rect width="1280" height="800" fill="#0f1115"/>
  <rect x="0" y="0" width="220" height="800" fill="#12151b"/>
  <rect x="219" y="0" width="1" height="800" fill="#ffffff" opacity="0.08"/>
  <text x="36" y="39" fill="#e8eaed" font-family="system-ui,sans-serif" font-size="12" font-weight="600">Monavel</text>
  <text x="32" y="88" fill="#6b7280" font-family="system-ui,sans-serif" font-size="10" letter-spacing="0.08em">WORKSPACES</text>
  <rect x="24" y="104" width="180" height="24" rx="6" fill="#141820"/>
  <text x="36" y="120" fill="#9ca3af" font-family="system-ui,sans-serif" font-size="11" font-weight="400">Dashboard</text>
  <rect x="24" y="132" width="180" height="24" rx="6" fill="#141820"/>
  <text x="36" y="148" fill="#9ca3af" font-family="system-ui,sans-serif" font-size="11" font-weight="400">Bookings</text>
  <rect x="24" y="160" width="180" height="24" rx="6" fill="#141820"/>
  <text x="36" y="176" fill="#9ca3af" font-family="system-ui,sans-serif" font-size="11" font-weight="400">Guests</text>
  <rect x="24" y="188" width="180" height="24" rx="6" fill="#141820"/>
  <text x="36" y="204" fill="#9ca3af" font-family="system-ui,sans-serif" font-size="11" font-weight="400">Rooms</text>
  <rect x="24" y="216" width="180" height="24" rx="6" fill="#34d39933"/>
  <text x="36" y="232" fill="#f9fafb" font-family="system-ui,sans-serif" font-size="11" font-weight="600">Calendar</text>
  <rect x="24" y="244" width="180" height="24" rx="6" fill="#141820"/>
  <text x="36" y="260" fill="#9ca3af" font-family="system-ui,sans-serif" font-size="11" font-weight="400">Revenue</text>
  <rect x="24" y="272" width="180" height="24" rx="6" fill="#141820"/>
  <text x="36" y="288" fill="#9ca3af" font-family="system-ui,sans-serif" font-size="11" font-weight="400">Knowledge</text>
  <rect x="24" y="300" width="180" height="24" rx="6" fill="#141820"/>
  <text x="36" y="316" fill="#9ca3af" font-family="system-ui,sans-serif" font-size="11" font-weight="400">Reception AI</text>
  <rect x="220" y="0" width="1060" height="800" fill="#0f1115"/>
  <text x="252" y="48" fill="#f9fafb" font-family="system-ui,sans-serif" font-size="20" font-weight="600">Calendar</text>
  <text x="252" y="72" fill="#6b7280" font-family="system-ui,sans-serif" font-size="12">monavel.app/calendar</text>
  <rect x="252" y="88" width="180" height="24" rx="12" fill="#34d39922"/>
  <text x="264" y="104" fill="#34d399" font-family="system-ui,sans-serif" font-size="11" font-weight="600">Connected by AI</text>
  <rect x="1140" y="36" width="100" height="32" rx="8" fill="#171b22" stroke="#ffffff" stroke-opacity="0.08"/>
  <circle cx="1158" cy="52" r="10" fill="#1f2937"/>
  <text x="1174" y="56" fill="#9ca3af" font-family="system-ui,sans-serif" font-size="11">Hotel Aurora</text>
  <rect x="252" y="120" width="230" height="88" rx="12" fill="#171b22" stroke="#ffffff" stroke-opacity="0.08"/>
  <text x="268" y="144" fill="#6b7280" font-family="system-ui,sans-serif" font-size="11">Occupancy</text>
  <text x="268" y="172" fill="#f9fafb" font-family="system-ui,sans-serif" font-size="22" font-weight="600">87%</text>
  <text x="309" y="172" fill="#34d399" font-family="system-ui,sans-serif" font-size="11" font-weight="600">+5%</text>
  <polyline points="268,192 288,188 308,194 328,184 348,190 368,182 388,186 408,178 428,184 448,176" fill="none" stroke="#34d399" stroke-width="1.5" stroke-opacity="0.65"/>
  <rect x="498" y="120" width="230" height="88" rx="12" fill="#171b22" stroke="#ffffff" stroke-opacity="0.08"/>
  <text x="514" y="144" fill="#6b7280" font-family="system-ui,sans-serif" font-size="11">Bookings</text>
  <text x="514" y="172" fill="#f9fafb" font-family="system-ui,sans-serif" font-size="22" font-weight="600">38</text>
  <text x="544" y="172" fill="#34d399" font-family="system-ui,sans-serif" font-size="11" font-weight="600">this week</text>
  <polyline points="514,192 534,188 554,194 574,184 594,190 614,182 634,186 654,178 674,184 694,176" fill="none" stroke="#34d399" stroke-width="1.5" stroke-opacity="0.65"/>
  <rect x="744" y="120" width="230" height="88" rx="12" fill="#171b22" stroke="#ffffff" stroke-opacity="0.08"/>
  <text x="760" y="144" fill="#6b7280" font-family="system-ui,sans-serif" font-size="11">Check-ins</text>
  <text x="760" y="172" fill="#f9fafb" font-family="system-ui,sans-serif" font-size="22" font-weight="600">14</text>
  <text x="790" y="172" fill="#34d399" font-family="system-ui,sans-serif" font-size="11" font-weight="600">today</text>
  <polyline points="760,192 780,188 800,194 820,184 840,190 860,182 880,186 900,178 920,184 940,176" fill="none" stroke="#34d399" stroke-width="1.5" stroke-opacity="0.65"/>
  <rect x="990" y="120" width="230" height="88" rx="12" fill="#171b22" stroke="#ffffff" stroke-opacity="0.08"/>
  <text x="1006" y="144" fill="#6b7280" font-family="system-ui,sans-serif" font-size="11">Check-outs</text>
  <text x="1006" y="172" fill="#f9fafb" font-family="system-ui,sans-serif" font-size="22" font-weight="600">9</text>
  <text x="1025" y="172" fill="#34d399" font-family="system-ui,sans-serif" font-size="11" font-weight="600">today</text>
  <polyline points="1006,192 1026,188 1046,194 1066,184 1086,190 1106,182 1126,186 1146,178 1166,184 1186,176" fill="none" stroke="#34d399" stroke-width="1.5" stroke-opacity="0.65"/>
  <rect x="252" y="224" width="1008" height="360" rx="14" fill="#171b22" stroke="#ffffff" stroke-opacity="0.08"/>
  <text x="268" y="252" fill="#e5e7eb" font-family="system-ui,sans-serif" font-size="13" font-weight="600">Booking timeline</text>
  <text x="268" y="270" fill="#6b7280" font-family="system-ui,sans-serif" font-size="10">Jul 7 - Jul 20, 2026</text>
  <text x="268" y="296" fill="#6b7280" font-family="system-ui,sans-serif" font-size="9" font-weight="600">ROOM</text>
  <text x="340" y="296" fill="#6b7280" font-family="system-ui,sans-serif" font-size="9" font-weight="600">MON 7</text>
  <text x="408" y="296" fill="#6b7280" font-family="system-ui,sans-serif" font-size="9" font-weight="600">TUE 8</text>
  <text x="476" y="296" fill="#6b7280" font-family="system-ui,sans-serif" font-size="9" font-weight="600">WED 9</text>
  <text x="544" y="296" fill="#6b7280" font-family="system-ui,sans-serif" font-size="9" font-weight="600">THU 10</text>
  <text x="612" y="296" fill="#6b7280" font-family="system-ui,sans-serif" font-size="9" font-weight="600">FRI 11</text>
  <text x="680" y="296" fill="#6b7280" font-family="system-ui,sans-serif" font-size="9" font-weight="600">SAT 12</text>
  <text x="748" y="296" fill="#6b7280" font-family="system-ui,sans-serif" font-size="9" font-weight="600">SUN 13</text>
  <line x1="268" y1="304" x2="1244" y2="304" stroke="#ffffff" stroke-opacity="0.06"/>

  <text x="252" y="332" fill="#9ca3af" font-family="system-ui,sans-serif" font-size="10">305</text>
  <rect x="340" y="320" width="180" height="20" rx="4" fill="#34d399" opacity="0.5"/>
  <text x="348" y="334" fill="#e5e7eb" font-family="system-ui,sans-serif" font-size="9">Anna K.</text>
  <text x="528" y="334" fill="#6b7280" font-family="system-ui,sans-serif" font-size="9">Jul 10-13</text>
  <text x="252" y="372" fill="#9ca3af" font-family="system-ui,sans-serif" font-size="10">201</text>
  <rect x="340" y="360" width="120" height="20" rx="4" fill="#34d399" opacity="0.5"/>
  <text x="348" y="374" fill="#e5e7eb" font-family="system-ui,sans-serif" font-size="9">Thomas B.</text>
  <text x="468" y="374" fill="#6b7280" font-family="system-ui,sans-serif" font-size="9">Jul 10-12</text>
  <text x="252" y="412" fill="#9ca3af" font-family="system-ui,sans-serif" font-size="10">112</text>
  <rect x="408" y="400" width="160" height="20" rx="4" fill="#34d399" opacity="0.5"/>
  <text x="416" y="414" fill="#e5e7eb" font-family="system-ui,sans-serif" font-size="9">Maria S.</text>
  <text x="576" y="414" fill="#6b7280" font-family="system-ui,sans-serif" font-size="9">Jul 11-14</text>
  <text x="252" y="452" fill="#9ca3af" font-family="system-ui,sans-serif" font-size="10">408</text>
  <rect x="476" y="440" width="224" height="20" rx="4" fill="#34d399" opacity="0.5"/>
  <text x="484" y="454" fill="#e5e7eb" font-family="system-ui,sans-serif" font-size="9">James M.</text>
  <text x="708" y="454" fill="#6b7280" font-family="system-ui,sans-serif" font-size="9">Jul 12-16</text>
  <text x="252" y="492" fill="#9ca3af" font-family="system-ui,sans-serif" font-size="10">210</text>
  <rect x="544" y="480" width="128" height="20" rx="4" fill="#34d399" opacity="0.5"/>
  <text x="552" y="494" fill="#e5e7eb" font-family="system-ui,sans-serif" font-size="9">Elena P.</text>
  <text x="680" y="494" fill="#6b7280" font-family="system-ui,sans-serif" font-size="9">Jul 13-15</text>
  <text x="252" y="532" fill="#9ca3af" font-family="system-ui,sans-serif" font-size="10">118</text>
  <rect x="612" y="520" width="140" height="20" rx="4" fill="#34d399" opacity="0.5"/>
  <text x="620" y="534" fill="#e5e7eb" font-family="system-ui,sans-serif" font-size="9">Robert K.</text>
  <text x="760" y="534" fill="#6b7280" font-family="system-ui,sans-serif" font-size="9">Jul 14-17</text>
  <rect x="252" y="600" width="1008" height="176" rx="14" fill="#171b22" stroke="#ffffff" stroke-opacity="0.08"/>
  <text x="268" y="628" fill="#e5e7eb" font-family="system-ui,sans-serif" font-size="13" font-weight="600">Occupancy strip</text>
  <text x="268" y="646" fill="#6b7280" font-family="system-ui,sans-serif" font-size="10">Daily occupancy - next 7 days</text>

  <rect x="268" y="636" width="56" height="28" rx="4" fill="#34d399" opacity="0.6"/>
  <text x="272" y="680" fill="#9ca3af" font-family="system-ui,sans-serif" font-size="9">Mon 7</text>
  <text x="272" y="630" fill="#e5e7eb" font-family="system-ui,sans-serif" font-size="9">72%</text>
  <rect x="336" y="633" width="56" height="31" rx="4" fill="#34d399" opacity="0.6"/>
  <text x="340" y="680" fill="#9ca3af" font-family="system-ui,sans-serif" font-size="9">Tue 8</text>
  <text x="340" y="627" fill="#e5e7eb" font-family="system-ui,sans-serif" font-size="9">78%</text>
  <rect x="404" y="631" width="56" height="33" rx="4" fill="#34d399" opacity="0.6"/>
  <text x="408" y="680" fill="#9ca3af" font-family="system-ui,sans-serif" font-size="9">Wed 9</text>
  <text x="408" y="625" fill="#e5e7eb" font-family="system-ui,sans-serif" font-size="9">84%</text>
  <rect x="472" y="630" width="56" height="34" rx="4" fill="#34d399" opacity="0.6"/>
  <text x="476" y="680" fill="#9ca3af" font-family="system-ui,sans-serif" font-size="9">Thu 10</text>
  <text x="476" y="624" fill="#e5e7eb" font-family="system-ui,sans-serif" font-size="9">87%</text>
  <rect x="540" y="628" width="56" height="36" rx="4" fill="#34d399" opacity="0.6"/>
  <text x="544" y="680" fill="#9ca3af" font-family="system-ui,sans-serif" font-size="9">Fri 11</text>
  <text x="544" y="622" fill="#e5e7eb" font-family="system-ui,sans-serif" font-size="9">91%</text>
  <rect x="608" y="626" width="56" height="38" rx="4" fill="#34d399" opacity="0.6"/>
  <text x="612" y="680" fill="#9ca3af" font-family="system-ui,sans-serif" font-size="9">Sat 12</text>
  <text x="612" y="620" fill="#e5e7eb" font-family="system-ui,sans-serif" font-size="9">95%</text>
  <rect x="676" y="629" width="56" height="35" rx="4" fill="#34d399" opacity="0.6"/>
  <text x="680" y="680" fill="#9ca3af" font-family="system-ui,sans-serif" font-size="9">Sun 13</text>
  <text x="680" y="623" fill="#e5e7eb" font-family="system-ui,sans-serif" font-size="9">88%</text>
</svg>
