<?xml version="1.0" encoding="UTF-8"?>
<svg xmlns="http://www.w3.org/2000/svg" width="1280" height="800" viewBox="0 0 1280 800" fill="none">
  <rect width="1280" height="800" fill="#0f1115"/>
  <rect x="0" y="0" width="220" height="800" fill="#12151b"/>
  <rect x="219" y="0" width="1" height="800" fill="#ffffff" opacity="0.08"/>
  <text x="36" y="39" fill="#e8eaed" font-family="system-ui,sans-serif" font-size="12" font-weight="600">Monavel</text>
  <text x="32" y="88" fill="#6b7280" font-family="system-ui,sans-serif" font-size="10" letter-spacing="0.08em">WORKSPACES</text>
  <rect x="24" y="104" width="180" height="24" rx="6" fill="#141820"/>
  <text x="36" y="120" fill="#9ca3af" font-family="system-ui,sans-serif" font-size="11" font-weight="400">Dashboard</text>
  <rect x="24" y="132" width="180" height="24" rx="6" fill="#141820"/>
  <text x="36" y="148" fill="#9ca3af" font-family="system-ui,sans-serif" font-size="11" font-weight="400">Bookings</text>
  <rect x="24" y="160" width="180" height="24" rx="6" fill="#141820"/>
  <text x="36" y="176" fill="#9ca3af" font-family="system-ui,sans-serif" font-size="11" font-weight="400">Guests</text>
  <rect x="24" y="188" width="180" height="24" rx="6" fill="#141820"/>
  <text x="36" y="204" fill="#9ca3af" font-family="system-ui,sans-serif" font-size="11" font-weight="400">Rooms</text>
  <rect x="24" y="216" width="180" height="24" rx="6" fill="#141820"/>
  <text x="36" y="232" fill="#9ca3af" font-family="system-ui,sans-serif" font-size="11" font-weight="400">Calendar</text>
  <rect x="24" y="244" width="180" height="24" rx="6" fill="#141820"/>
  <text x="36" y="260" fill="#9ca3af" font-family="system-ui,sans-serif" font-size="11" font-weight="400">Revenue</text>
  <rect x="24" y="272" width="180" height="24" rx="6" fill="#141820"/>
  <text x="36" y="288" fill="#9ca3af" font-family="system-ui,sans-serif" font-size="11" font-weight="400">Knowledge</text>
  <rect x="24" y="300" width="180" height="24" rx="6" fill="#10b98133"/>
  <text x="36" y="316" fill="#f9fafb" font-family="system-ui,sans-serif" font-size="11" font-weight="600">Reception AI</text>
  <rect x="220" y="0" width="1060" height="800" fill="#0f1115"/>
  <text x="252" y="48" fill="#f9fafb" font-family="system-ui,sans-serif" font-size="20" font-weight="600">Reception AI</text>
  <text x="252" y="72" fill="#6b7280" font-family="system-ui,sans-serif" font-size="12">monavel.app/reception-ai</text>
  <rect x="252" y="88" width="180" height="24" rx="12" fill="#10b98122"/>
  <text x="264" y="104" fill="#10b981" font-family="system-ui,sans-serif" font-size="11" font-weight="600">Connected by AI</text>
  <rect x="1140" y="36" width="100" height="32" rx="8" fill="#171b22" stroke="#ffffff" stroke-opacity="0.08"/>
  <circle cx="1158" cy="52" r="10" fill="#1f2937"/>
  <text x="1174" y="56" fill="#9ca3af" font-family="system-ui,sans-serif" font-size="11">Hotel Aurora</text>
  <rect x="252" y="120" width="230" height="88" rx="12" fill="#171b22" stroke="#ffffff" stroke-opacity="0.08"/>
  <text x="268" y="144" fill="#6b7280" font-family="system-ui,sans-serif" font-size="11">Open</text>
  <text x="268" y="172" fill="#f9fafb" font-family="system-ui,sans-serif" font-size="22" font-weight="600">6</text>
  <text x="287" y="172" fill="#10b981" font-family="system-ui,sans-serif" font-size="11" font-weight="600">conversations</text>
  <polyline points="268,192 288,188 308,194 328,184 348,190 368,182 388,186 408,178 428,184 448,176" fill="none" stroke="#10b981" stroke-width="1.5" stroke-opacity="0.65"/>
  <rect x="498" y="120" width="230" height="88" rx="12" fill="#171b22" stroke="#ffffff" stroke-opacity="0.08"/>
  <text x="514" y="144" fill="#6b7280" font-family="system-ui,sans-serif" font-size="11">AI handled</text>
  <text x="514" y="172" fill="#f9fafb" font-family="system-ui,sans-serif" font-size="22" font-weight="600">18</text>
  <text x="544" y="172" fill="#10b981" font-family="system-ui,sans-serif" font-size="11" font-weight="600">today</text>
  <polyline points="514,192 534,188 554,194 574,184 594,190 614,182 634,186 654,178 674,184 694,176" fill="none" stroke="#10b981" stroke-width="1.5" stroke-opacity="0.65"/>
  <rect x="744" y="120" width="230" height="88" rx="12" fill="#171b22" stroke="#ffffff" stroke-opacity="0.08"/>
  <text x="760" y="144" fill="#6b7280" font-family="system-ui,sans-serif" font-size="11">Awaiting review</text>
  <text x="760" y="172" fill="#f9fafb" font-family="system-ui,sans-serif" font-size="22" font-weight="600">2</text>
  <text x="779" y="172" fill="#f59e0b" font-family="system-ui,sans-serif" font-size="11" font-weight="600">drafts</text>
  <polyline points="760,192 780,188 800,194 820,184 840,190 860,182 880,186 900,178 920,184 940,176" fill="none" stroke="#10b981" stroke-width="1.5" stroke-opacity="0.65"/>
  <rect x="990" y="120" width="230" height="88" rx="12" fill="#171b22" stroke="#ffffff" stroke-opacity="0.08"/>
  <text x="1006" y="144" fill="#6b7280" font-family="system-ui,sans-serif" font-size="11">Urgent</text>
  <text x="1006" y="172" fill="#f9fafb" font-family="system-ui,sans-serif" font-size="22" font-weight="600">2</text>
  <text x="1025" y="172" fill="#ef4444" font-family="system-ui,sans-serif" font-size="11" font-weight="600">priority</text>
  <polyline points="1006,192 1026,188 1046,194 1066,184 1086,190 1106,182 1126,186 1146,178 1166,184 1186,176" fill="none" stroke="#10b981" stroke-width="1.5" stroke-opacity="0.65"/>
  <rect x="252" y="224" width="320" height="552" rx="14" fill="#171b22" stroke="#ffffff" stroke-opacity="0.08"/>
  <text x="268" y="252" fill="#e5e7eb" font-family="system-ui,sans-serif" font-size="13" font-weight="600">Inbox</text>
  <text x="520" y="252" fill="#6b7280" font-family="system-ui,sans-serif" font-size="10">6 open</text>
  <rect x="268" y="264" width="288" height="52" rx="8" fill="#141820"/>
  <rect x="268" y="264" width="3" height="52" rx="1.5" fill="#f59e0b"/>
  <text x="280" y="284" fill="#e5e7eb" font-family="system-ui,sans-serif" font-size="11" font-weight="500">Anna K. - Check-in time?</text>
  <text x="280" y="302" fill="#6b7280" font-family="system-ui,sans-serif" font-size="10">Telegram - AI draft ready</text>
  <rect x="480" y="278" width="52" height="16" rx="4" fill="#422006"/>
  <text x="488" y="289" fill="#f59e0b" font-family="system-ui,sans-serif" font-size="9">Urgent</text>
  <rect x="268" y="326" width="288" height="52" rx="8" fill="#141820"/>
  <rect x="268" y="326" width="3" height="52" rx="1.5" fill="#f59e0b"/>
  <text x="280" y="346" fill="#e5e7eb" font-family="system-ui,sans-serif" font-size="11" font-weight="500">Elena V. - Late checkout</text>
  <text x="280" y="364" fill="#6b7280" font-family="system-ui,sans-serif" font-size="10">Email - awaiting review</text>
  <rect x="480" y="340" width="52" height="16" rx="4" fill="#422006"/>
  <text x="488" y="351" fill="#f59e0b" font-family="system-ui,sans-serif" font-size="9">Urgent</text>
  <rect x="268" y="388" width="288" height="52" rx="8" fill="#141820"/>
  <text x="280" y="408" fill="#e5e7eb" font-family="system-ui,sans-serif" font-size="11" font-weight="500">Mikhail R. - Parking?</text>
  <text x="280" y="426" fill="#6b7280" font-family="system-ui,sans-serif" font-size="10">WhatsApp - AI draft ready</text>
  <rect x="468" y="402" width="52" height="16" rx="4" fill="#1e3a5f"/>
  <text x="476" y="413" fill="#38bdf8" font-family="system-ui,sans-serif" font-size="9">Review</text>
  <rect x="268" y="450" width="288" height="52" rx="8" fill="#141820"/>
  <text x="280" y="470" fill="#e5e7eb" font-family="system-ui,sans-serif" font-size="11" font-weight="500">James M. - Room upgrade</text>
  <text x="280" y="488" fill="#6b7280" font-family="system-ui,sans-serif" font-size="10">Direct chat - AI handled</text>
  <rect x="468" y="464" width="58" height="16" rx="4" fill="#1a2e28"/>
  <text x="476" y="475" fill="#10b981" font-family="system-ui,sans-serif" font-size="9">Handled</text>
  <rect x="268" y="512" width="288" height="52" rx="8" fill="#141820"/>
  <text x="280" y="532" fill="#e5e7eb" font-family="system-ui,sans-serif" font-size="11" font-weight="500">Sarah C. - Spa booking</text>
  <text x="280" y="550" fill="#6b7280" font-family="system-ui,sans-serif" font-size="10">Telegram - AI handled</text>
  <rect x="468" y="526" width="58" height="16" rx="4" fill="#1a2e28"/>
  <text x="476" y="537" fill="#10b981" font-family="system-ui,sans-serif" font-size="9">Handled</text>
  <rect x="268" y="574" width="288" height="52" rx="8" fill="#141820"/>
  <text x="280" y="594" fill="#e5e7eb" font-family="system-ui,sans-serif" font-size="11" font-weight="500">Thomas B. - Invoice request</text>
  <text x="280" y="612" fill="#6b7280" font-family="system-ui,sans-serif" font-size="10">Email - AI draft ready</text>
  <rect x="468" y="588" width="52" height="16" rx="4" fill="#1e3a5f"/>
  <text x="476" y="599" fill="#38bdf8" font-family="system-ui,sans-serif" font-size="9">Review</text>
  <text x="268" y="660" fill="#6b7280" font-family="system-ui,sans-serif" font-size="10">Channels: Telegram, WhatsApp, Email</text>
  <rect x="588" y="224" width="672" height="552" rx="14" fill="#171b22" stroke="#ffffff" stroke-opacity="0.08"/>
  <text x="604" y="252" fill="#e5e7eb" font-family="system-ui,sans-serif" font-size="13" font-weight="600">Anna Kowalski</text>
  <text x="604" y="270" fill="#6b7280" font-family="system-ui,sans-serif" font-size="10">Telegram - Booking BK-4821 - Room 305</text>
  <rect x="604" y="288" width="420" height="64" rx="10" fill="#141820"/>
  <text x="616" y="308" fill="#e5e7eb" font-family="system-ui,sans-serif" font-size="11">Hi, what time is check-in? We arrive</text>
  <text x="616" y="324" fill="#e5e7eb" font-family="system-ui,sans-serif" font-size="11">around 2pm tomorrow.</text>
  <text x="616" y="344" fill="#6b7280" font-family="system-ui,sans-serif" font-size="9">Anna K. - 14:32</text>
  <rect x="604" y="368" width="480" height="80" rx="10" fill="#1a2e28" stroke="#10b981" stroke-opacity="0.3"/>
  <text x="616" y="388" fill="#10b981" font-family="system-ui,sans-serif" font-size="9" font-weight="600">AI DRAFT</text>
  <text x="616" y="406" fill="#e5e7eb" font-family="system-ui,sans-serif" font-size="11">Check-in is from 3:00 PM. Early check-in</text>
  <text x="616" y="422" fill="#e5e7eb" font-family="system-ui,sans-serif" font-size="11">may be available - shall I check for you?</text>
  <text x="616" y="440" fill="#6b7280" font-family="system-ui,sans-serif" font-size="9">Based on Check-in policy article</text>
  <rect x="604" y="464" width="120" height="28" rx="6" fill="#10b981"/>
  <text x="628" y="482" fill="#0f1115" font-family="system-ui,sans-serif" font-size="10" font-weight="600">Send reply</text>
  <rect x="736" y="464" width="80" height="28" rx="6" fill="#141820"/>
  <text x="752" y="482" fill="#9ca3af" font-family="system-ui,sans-serif" font-size="10">Edit draft</text>
  <rect x="828" y="464" width="80" height="28" rx="6" fill="#141820"/>
  <text x="840" y="482" fill="#9ca3af" font-family="system-ui,sans-serif" font-size="10">Take over</text>
  <text x="604" y="520" fill="#e5e7eb" font-family="system-ui,sans-serif" font-size="12" font-weight="600">Context</text>
  <text x="604" y="540" fill="#9ca3af" font-family="system-ui,sans-serif" font-size="10">Guest profile: Anna Kowalski - 3 stays - Leisure</text>
  <text x="604" y="558" fill="#9ca3af" font-family="system-ui,sans-serif" font-size="10">Booking: Jul 10-13 - Room 305 - $486</text>
  <text x="604" y="576" fill="#9ca3af" font-family="system-ui,sans-serif" font-size="10">Knowledge: Check-in policy, Early check-in FAQ</text>
  <text x="604" y="620" fill="#6b7280" font-family="system-ui,sans-serif" font-size="10">Response time: avg 42 sec - 94% AI resolution rate</text>
  <text x="604" y="640" fill="#6b7280" font-family="system-ui,sans-serif" font-size="10">Escalated to staff: 6% of conversations</text>
  <text x="604" y="680" fill="#6b7280" font-family="system-ui,sans-serif" font-size="10">Auto-reply enabled for FAQ queries</text>
  <text x="604" y="700" fill="#6b7280" font-family="system-ui,sans-serif" font-size="10">Human review required for checkout changes</text>
</svg>
