<?xml version="1.0" encoding="UTF-8"?>
<svg xmlns="http://www.w3.org/2000/svg" width="1280" height="800" viewBox="0 0 1280 800" fill="none">
  <rect width="1280" height="800" fill="#0f1115"/>
  <rect x="0" y="0" width="220" height="800" fill="#12151b"/>
  <rect x="219" y="0" width="1" height="800" fill="#ffffff" opacity="0.08"/>
  <text x="36" y="39" fill="#e8eaed" font-family="system-ui,sans-serif" font-size="12" font-weight="600">Monavel</text>
  <text x="32" y="88" fill="#6b7280" font-family="system-ui,sans-serif" font-size="10" letter-spacing="0.08em">WORKSPACES</text>
  <rect x="24" y="104" width="180" height="24" rx="6" fill="#141820"/>
  <text x="36" y="120" fill="#9ca3af" font-family="system-ui,sans-serif" font-size="11" font-weight="400">Dashboard</text>
  <rect x="24" y="132" width="180" height="24" rx="6" fill="#141820"/>
  <text x="36" y="148" fill="#9ca3af" font-family="system-ui,sans-serif" font-size="11" font-weight="400">Bookings</text>
  <rect x="24" y="160" width="180" height="24" rx="6" fill="#141820"/>
  <text x="36" y="176" fill="#9ca3af" font-family="system-ui,sans-serif" font-size="11" font-weight="400">Guests</text>
  <rect x="24" y="188" width="180" height="24" rx="6" fill="#141820"/>
  <text x="36" y="204" fill="#9ca3af" font-family="system-ui,sans-serif" font-size="11" font-weight="400">Rooms</text>
  <rect x="24" y="216" width="180" height="24" rx="6" fill="#141820"/>
  <text x="36" y="232" fill="#9ca3af" font-family="system-ui,sans-serif" font-size="11" font-weight="400">Calendar</text>
  <rect x="24" y="244" width="180" height="24" rx="6" fill="#22d3ee33"/>
  <text x="36" y="260" fill="#f9fafb" font-family="system-ui,sans-serif" font-size="11" font-weight="600">Revenue</text>
  <rect x="24" y="272" width="180" height="24" rx="6" fill="#141820"/>
  <text x="36" y="288" fill="#9ca3af" font-family="system-ui,sans-serif" font-size="11" font-weight="400">Knowledge</text>
  <rect x="24" y="300" width="180" height="24" rx="6" fill="#141820"/>
  <text x="36" y="316" fill="#9ca3af" font-family="system-ui,sans-serif" font-size="11" font-weight="400">Reception AI</text>
  <rect x="220" y="0" width="1060" height="800" fill="#0f1115"/>
  <text x="252" y="48" fill="#f9fafb" font-family="system-ui,sans-serif" font-size="20" font-weight="600">Revenue</text>
  <text x="252" y="72" fill="#6b7280" font-family="system-ui,sans-serif" font-size="12">app.monavel.com/revenue</text>
  <rect x="252" y="88" width="180" height="24" rx="12" fill="#22d3ee22"/>
  <text x="264" y="104" fill="#22d3ee" font-family="system-ui,sans-serif" font-size="11" font-weight="600">Connected by AI</text>
  <rect x="1140" y="36" width="100" height="32" rx="8" fill="#171b22" stroke="#ffffff" stroke-opacity="0.08"/>
  <circle cx="1158" cy="52" r="10" fill="#1f2937"/>
  <text x="1174" y="56" fill="#9ca3af" font-family="system-ui,sans-serif" font-size="11">Hotel Aurora</text>
  <rect x="252" y="120" width="230" height="88" rx="12" fill="#171b22" stroke="#ffffff" stroke-opacity="0.08"/>
  <text x="268" y="144" fill="#6b7280" font-family="system-ui,sans-serif" font-size="11">Revenue</text>
  <text x="268" y="172" fill="#f9fafb" font-family="system-ui,sans-serif" font-size="22" font-weight="600">$48.2k</text>
  <text x="342" y="172" fill="#22d3ee" font-family="system-ui,sans-serif" font-size="11" font-weight="600">+12%</text>
  <polyline points="268,192 288,188 308,194 328,184 348,190 368,182 388,186 408,178 428,184 448,176" fill="none" stroke="#22d3ee" stroke-width="1.5" stroke-opacity="0.65"/>
  <rect x="498" y="120" width="230" height="88" rx="12" fill="#171b22" stroke="#ffffff" stroke-opacity="0.08"/>
  <text x="514" y="144" fill="#6b7280" font-family="system-ui,sans-serif" font-size="11">ADR</text>
  <text x="514" y="172" fill="#f9fafb" font-family="system-ui,sans-serif" font-size="22" font-weight="600">$186</text>
  <text x="566" y="172" fill="#22d3ee" font-family="system-ui,sans-serif" font-size="11" font-weight="600">+8%</text>
  <polyline points="514,192 534,188 554,194 574,184 594,190 614,182 634,186 654,178 674,184 694,176" fill="none" stroke="#22d3ee" stroke-width="1.5" stroke-opacity="0.65"/>
  <rect x="744" y="120" width="230" height="88" rx="12" fill="#171b22" stroke="#ffffff" stroke-opacity="0.08"/>
  <text x="760" y="144" fill="#6b7280" font-family="system-ui,sans-serif" font-size="11">RevPAR</text>
  <text x="760" y="172" fill="#f9fafb" font-family="system-ui,sans-serif" font-size="22" font-weight="600">$162</text>
  <text x="812" y="172" fill="#22d3ee" font-family="system-ui,sans-serif" font-size="11" font-weight="600">+6%</text>
  <polyline points="760,192 780,188 800,194 820,184 840,190 860,182 880,186 900,178 920,184 940,176" fill="none" stroke="#22d3ee" stroke-width="1.5" stroke-opacity="0.65"/>
  <rect x="990" y="120" width="230" height="88" rx="12" fill="#171b22" stroke="#ffffff" stroke-opacity="0.08"/>
  <text x="1006" y="144" fill="#6b7280" font-family="system-ui,sans-serif" font-size="11">Occupancy</text>
  <text x="1006" y="172" fill="#f9fafb" font-family="system-ui,sans-serif" font-size="22" font-weight="600">87%</text>
  <text x="1047" y="172" fill="#22d3ee" font-family="system-ui,sans-serif" font-size="11" font-weight="600">+5%</text>
  <polyline points="1006,192 1026,188 1046,194 1066,184 1086,190 1106,182 1126,186 1146,178 1166,184 1186,176" fill="none" stroke="#22d3ee" stroke-width="1.5" stroke-opacity="0.65"/>
  <rect x="252" y="224" width="640" height="360" rx="14" fill="#171b22" stroke="#ffffff" stroke-opacity="0.08"/>
  <text x="268" y="252" fill="#e5e7eb" font-family="system-ui,sans-serif" font-size="13" font-weight="600">Revenue trend</text>
  <text x="268" y="270" fill="#6b7280" font-family="system-ui,sans-serif" font-size="10">Last 14 days</text>
  <line x1="268" y1="540" x2="876" y2="540" stroke="#ffffff" stroke-opacity="0.06"/>
  <polyline points="268,520 300,508 332,512 364,490 396,498 428,472 460,480 492,460 524,468 556,440 588,452 620,428 652,438 684,410 716,420 748,400 780,412 812,388 844,398 876,380" fill="none" stroke="#22d3ee" stroke-width="2"/>
  <text x="268" y="558" fill="#6b7280" font-family="system-ui,sans-serif" font-size="9">Jun 26</text>
  <text x="400" y="558" fill="#6b7280" font-family="system-ui,sans-serif" font-size="9">Jul 2</text>
  <text x="532" y="558" fill="#6b7280" font-family="system-ui,sans-serif" font-size="9">Jul 8</text>
  <text x="680" y="558" fill="#6b7280" font-family="system-ui,sans-serif" font-size="9">Jul 10</text>
  <rect x="268" y="290" width="120" height="48" rx="6" fill="#141820"/>
  <text x="276" y="308" fill="#6b7280" font-family="system-ui,sans-serif" font-size="9">PEAK DAY</text>
  <text x="276" y="328" fill="#f9fafb" font-family="system-ui,sans-serif" font-size="14" font-weight="600">$4,820</text>
  <text x="340" y="328" fill="#9ca3af" font-family="system-ui,sans-serif" font-size="10">Jul 9</text>
  <rect x="908" y="224" width="352" height="360" rx="14" fill="#171b22" stroke="#ffffff" stroke-opacity="0.08"/>
  <text x="924" y="252" fill="#e5e7eb" font-family="system-ui,sans-serif" font-size="13" font-weight="600">Rate performance</text>
  <rect x="924" y="268" width="320" height="56" rx="8" fill="#141820"/>
  <text x="936" y="288" fill="#6b7280" font-family="system-ui,sans-serif" font-size="9">STANDARD</text>
  <text x="936" y="308" fill="#f9fafb" font-family="system-ui,sans-serif" font-size="16" font-weight="600">$142 ADR</text>
  <text x="1020" y="308" fill="#10b981" font-family="system-ui,sans-serif" font-size="10">+6%</text>
  <rect x="924" y="336" width="320" height="56" rx="8" fill="#141820"/>
  <text x="936" y="356" fill="#6b7280" font-family="system-ui,sans-serif" font-size="9">DELUXE</text>
  <text x="936" y="376" fill="#f9fafb" font-family="system-ui,sans-serif" font-size="16" font-weight="600">$198 ADR</text>
  <text x="1020" y="376" fill="#10b981" font-family="system-ui,sans-serif" font-size="10">+9%</text>
  <rect x="924" y="404" width="320" height="56" rx="8" fill="#141820"/>
  <text x="936" y="424" fill="#6b7280" font-family="system-ui,sans-serif" font-size="9">SUITE</text>
  <text x="936" y="444" fill="#f9fafb" font-family="system-ui,sans-serif" font-size="16" font-weight="600">$312 ADR</text>
  <text x="1020" y="444" fill="#10b981" font-family="system-ui,sans-serif" font-size="10">+4%</text>
  <rect x="924" y="472" width="320" height="56" rx="8" fill="#141820"/>
  <text x="936" y="492" fill="#6b7280" font-family="system-ui,sans-serif" font-size="9">PENTHOUSE</text>
  <text x="936" y="512" fill="#f9fafb" font-family="system-ui,sans-serif" font-size="16" font-weight="600">$580 ADR</text>
  <text x="1020" y="512" fill="#10b981" font-family="system-ui,sans-serif" font-size="10">+2%</text>
  <rect x="252" y="600" width="1008" height="176" rx="14" fill="#171b22" stroke="#ffffff" stroke-opacity="0.08"/>
  <text x="268" y="628" fill="#e5e7eb" font-family="system-ui,sans-serif" font-size="13" font-weight="600">Revenue by channel</text>
  <text x="268" y="646" fill="#6b7280" font-family="system-ui,sans-serif" font-size="10">Last 30 days</text>
  <rect x="268" y="662" width="180" height="80" rx="4" fill="#141820"/>
  <rect x="268" y="702" width="180" height="40" rx="4" fill="#22d3ee" opacity="0.5"/>
  <text x="284" y="692" fill="#e5e7eb" font-family="system-ui,sans-serif" font-size="10" font-weight="600">Direct $19.3k</text>
  <text x="284" y="748" fill="#9ca3af" font-family="system-ui,sans-serif" font-size="9">40%</text>
  <rect x="468" y="662" width="180" height="80" rx="4" fill="#141820"/>
  <rect x="468" y="714" width="180" height="28" rx="4" fill="#22d3ee" opacity="0.4"/>
  <text x="484" y="692" fill="#e5e7eb" font-family="system-ui,sans-serif" font-size="10" font-weight="600">Booking.com $14.5k</text>
  <text x="484" y="748" fill="#9ca3af" font-family="system-ui,sans-serif" font-size="9">30%</text>
  <rect x="668" y="662" width="180" height="80" rx="4" fill="#141820"/>
  <rect x="668" y="726" width="180" height="16" rx="4" fill="#22d3ee" opacity="0.3"/>
  <text x="684" y="692" fill="#e5e7eb" font-family="system-ui,sans-serif" font-size="10" font-weight="600">Expedia $9.6k</text>
  <text x="684" y="748" fill="#9ca3af" font-family="system-ui,sans-serif" font-size="9">20%</text>
  <rect x="868" y="662" width="180" height="80" rx="4" fill="#141820"/>
  <rect x="868" y="734" width="180" height="8" rx="4" fill="#22d3ee" opacity="0.2"/>
  <text x="884" y="692" fill="#e5e7eb" font-family="system-ui,sans-serif" font-size="10" font-weight="600">Other $4.8k</text>
  <text x="884" y="748" fill="#9ca3af" font-family="system-ui,sans-serif" font-size="9">10%</text>
</svg>
